<?xml version="1.0" encoding="utf-8"?>
<!-- Generator: Adobe Illustrator 27.5.0, SVG Export Plug-In . SVG Version: 6.00 Build 0)  -->
<svg version="1.1" xmlns="http://www.w3.org/2000/svg" xmlns:xlink="http://www.w3.org/1999/xlink" x="0px" y="0px"
	 viewBox="0 0 500 500" style="enable-background:new 0 0 500 500;" xml:space="preserve">
<g id="BACKGROUND">
	<rect style="fill-rule:evenodd;clip-rule:evenodd;fill:#FFFFFF;" width="500" height="500"/>
</g>
<g id="OBJECTS">
	<g>
		<path style="fill-rule:evenodd;clip-rule:evenodd;fill:#B7E1F8;" d="M102.123,421.198c-38.492,0-69.983-31.492-69.983-69.981l0,0
			c0-38.491,31.491-69.984,69.983-69.984l0,0c16.275,0,29.591-13.315,29.591-29.591l0,0c0-16.274-13.316-29.59-29.591-29.59h-3.521
			c-16.92,0-30.765-13.845-30.765-30.766l0,0c0-16.921,13.845-30.765,30.765-30.765h10.803c6.588,0,11.978-5.39,11.978-11.977l0,0
			c0-6.588-5.39-11.979-11.978-11.979h-7.938c-4.546,0-8.266-3.719-8.266-8.266l0,0c0-4.546,3.72-8.266,8.266-8.266h53.365
			c7.143,0,12.987-5.845,12.987-12.989l0,0c0-7.144-5.844-12.989-12.987-12.989h-15.957c-4.546,0-8.266-3.72-8.266-8.266l0,0
			c0-4.546,3.719-8.266,8.266-8.266h233.695c5.932,0,10.786,4.854,10.786,10.786l0,0c0,5.933-4.854,10.787-10.786,10.787h-16.364
			c-9.322,0-16.949,7.626-16.949,16.947v0.001c0,9.321,7.627,16.948,16.949,16.948h63.305c5.932,0,10.786,4.855,10.786,10.787l0,0
			c0,5.933-4.855,10.787-10.786,10.787h-10.358c-8.597,0-15.629,7.033-15.629,15.628l0,0c0,8.596,7.032,15.629,15.629,15.629h14.096
			c22.08,0,40.145,18.064,40.145,40.144l0,0c0,22.079-18.065,40.144-40.145,40.144h-4.595c-21.236,0-38.611,17.375-38.611,38.611
			l0,0c0,21.236,17.375,38.614,38.611,38.614h9.951c21.412,0,38.932,17.518,38.932,38.932l0,0c0,21.412-17.52,38.929-38.932,38.929
			C317.823,421.198,212.904,421.198,102.123,421.198L102.123,421.198z M400.171,99.097c5.956,0,10.785-4.829,10.785-10.787
			c0-5.957-4.829-10.786-10.785-10.786c-5.958,0-10.787,4.829-10.787,10.786C389.384,94.268,394.213,99.097,400.171,99.097
			L400.171,99.097z M78.27,136.567c4.565,0,8.266-3.701,8.266-8.267s-3.7-8.266-8.266-8.266c-4.566,0-8.266,3.7-8.266,8.266
			S73.704,136.567,78.27,136.567z"/>
		<path style="fill-rule:evenodd;clip-rule:evenodd;fill:#FFFFFF;" d="M262.321,110.415c1.34,0,2.433-1.091,2.433-2.432
			c0-1.339-1.093-2.432-2.433-2.432c-1.34,0-2.433,1.093-2.433,2.432C259.889,109.324,260.981,110.415,262.321,110.415z"/>
		<g>
			<path style="fill-rule:evenodd;clip-rule:evenodd;fill:#B2323A;" d="M137.604,186.093h40.342c1.085,0,1.971,0.887,1.971,1.971
				v23.128c0,1.085-0.887,1.971-1.971,1.971h-40.342c-1.085,0-1.971-0.887-1.971-1.971v-23.128
				C135.632,186.98,136.519,186.093,137.604,186.093z"/>
			<path style="fill-rule:evenodd;clip-rule:evenodd;fill:#C44345;" d="M179.887,211.533c-0.163,0.923-0.973,1.63-1.94,1.63h-40.343
				c-0.967,0-1.777-0.708-1.942-1.63l22.113-15.337L179.887,211.533z"/>
			<path style="fill-rule:evenodd;clip-rule:evenodd;fill:#DA4346;" d="M137.604,186.093h40.343c0.572,0,1.09,0.247,1.45,0.64
				l-21.622,14.998l-21.623-14.998C136.512,186.341,137.03,186.093,137.604,186.093z"/>
		</g>
		<g>
			<path style="fill-rule:evenodd;clip-rule:evenodd;fill:#9CC6E0;" d="M347.665,245.018h12.581c1.298,0,2.358,1.061,2.358,2.358
				v12.581c0,1.298-1.061,2.358-2.358,2.358h-12.581c-1.299,0-2.359-1.06-2.359-2.358v-12.581
				C345.306,246.079,346.366,245.018,347.665,245.018z"/>
			<path style="fill-rule:evenodd;clip-rule:evenodd;fill:#9CC6E0;" d="M347.665,266.806h12.581c1.298,0,2.358,1.063,2.358,2.361
				v12.58c0,1.298-1.061,2.358-2.358,2.358h-12.581c-1.299,0-2.359-1.061-2.359-2.358v-12.58
				C345.306,267.869,346.366,266.806,347.665,266.806z"/>
			<path style="fill-rule:evenodd;clip-rule:evenodd;fill:#9CC6E0;" d="M347.665,288.596h12.581c1.298,0,2.358,1.061,2.358,2.358
				v12.581c0,1.297-1.061,2.358-2.358,2.358h-12.581c-1.299,0-2.359-1.062-2.359-2.358v-12.581
				C345.306,289.657,346.366,288.596,347.665,288.596z"/>
			<path style="fill-rule:evenodd;clip-rule:evenodd;fill:#9CC6E0;" d="M347.665,310.384h12.581c1.298,0,2.358,1.061,2.358,2.358
				v12.581c0,1.297-1.061,2.36-2.358,2.36h-12.581c-1.299,0-2.359-1.064-2.359-2.36v-12.581
				C345.306,311.444,346.366,310.384,347.665,310.384z"/>
			<path style="fill-rule:evenodd;clip-rule:evenodd;fill:#FFFFFF;" d="M345.711,243.355h12.58c1.298,0,2.359,1.061,2.359,2.357
				v12.581c0,1.298-1.061,2.358-2.359,2.358h-12.58c-1.299,0-2.359-1.061-2.359-2.358v-12.581
				C343.352,244.415,344.412,243.355,345.711,243.355z"/>
			<path style="fill-rule:evenodd;clip-rule:evenodd;fill:#FFFFFF;" d="M345.711,265.141h12.58c1.298,0,2.359,1.064,2.359,2.361
				v12.581c0,1.297-1.061,2.357-2.359,2.357h-12.58c-1.299,0-2.359-1.06-2.359-2.357v-12.581
				C343.352,266.204,344.412,265.141,345.711,265.141z"/>
			<path style="fill-rule:evenodd;clip-rule:evenodd;fill:#FFFFFF;" d="M345.711,286.932h12.58c1.298,0,2.359,1.061,2.359,2.357
				v12.581c0,1.298-1.061,2.358-2.359,2.358h-12.58c-1.299,0-2.359-1.06-2.359-2.358v-12.581
				C343.352,287.992,344.412,286.932,345.711,286.932z"/>
			<path style="fill-rule:evenodd;clip-rule:evenodd;fill:#FFFFFF;" d="M345.711,308.719h12.58c1.298,0,2.359,1.06,2.359,2.358
				v12.581c0,1.297-1.061,2.36-2.359,2.36h-12.58c-1.299,0-2.359-1.063-2.359-2.36v-12.581
				C343.352,309.779,344.412,308.719,345.711,308.719z"/>
			<path style="fill-rule:evenodd;clip-rule:evenodd;fill:#78C9D9;" d="M347.104,253.919c-0.395-0.409-0.383-1.061,0.027-1.456
				c0.41-0.396,1.063-0.382,1.456,0.027l1.86,1.935l4.86-7.054c0.323-0.468,0.965-0.585,1.433-0.262
				c0.468,0.323,0.586,0.966,0.263,1.434l-5.555,8.06c-0.044,0.066-0.095,0.131-0.155,0.189c-0.409,0.395-1.061,0.381-1.456-0.028
				L347.104,253.919z"/>
			<path style="fill-rule:evenodd;clip-rule:evenodd;fill:#D84F50;" d="M349.62,278.212c-0.368,0.436-1.018,0.49-1.452,0.122
				c-0.435-0.367-0.488-1.019-0.121-1.453l2.605-3.09l-2.606-3.091c-0.366-0.434-0.314-1.085,0.122-1.453
				c0.434-0.367,1.084-0.312,1.452,0.123l2.382,2.822l2.38-2.822c0.367-0.435,1.019-0.49,1.453-0.123
				c0.435,0.368,0.488,1.02,0.121,1.453l-2.605,3.091l2.605,3.09c0.367,0.435,0.313,1.086-0.121,1.453
				c-0.435,0.368-1.086,0.314-1.453-0.122l-2.38-2.823L349.62,278.212z"/>
			<path style="fill-rule:evenodd;clip-rule:evenodd;fill:#78C9D9;" d="M347.104,297.497c-0.395-0.409-0.383-1.062,0.027-1.456
				c0.41-0.395,1.063-0.382,1.456,0.027l1.86,1.935l4.86-7.055c0.323-0.468,0.965-0.587,1.433-0.262
				c0.468,0.323,0.586,0.964,0.263,1.432l-5.555,8.063c-0.044,0.066-0.095,0.131-0.155,0.189c-0.409,0.393-1.061,0.381-1.456-0.031
				L347.104,297.497z"/>
		</g>
		<g>
			<path style="fill-rule:evenodd;clip-rule:evenodd;fill:#FFFFFF;" d="M373.219,346.116c0.803,0.991,8.836,5.438,8.836,5.438
				l-2.972,42.041c0,0-0.081,4.449-5.142,4.449c-5.06,0-8.193,0-8.193,0s-3.133,0-8.193,0c-5.061,0-5.142-4.449-5.142-4.449
				l-2.973-42.041c0,0,8.034-4.446,8.836-5.438H373.219z"/>
			<path style="fill-rule:evenodd;clip-rule:evenodd;fill:#A36E4E;" d="M381.345,360.519H350.15c-0.311,0-0.578,0.116-0.789,0.342
				c-0.212,0.228-0.31,0.504-0.289,0.813l1.87,26.42c0.04,0.568,0.508,1.005,1.076,1.005h27.458c0.568,0,1.039-0.436,1.078-1.005
				l1.868-26.42c0.021-0.31-0.075-0.585-0.287-0.813C381.924,360.635,381.657,360.519,381.345,360.519z"/>
			<path style="fill-rule:evenodd;clip-rule:evenodd;fill:#FFFFFF;" d="M377.061,343.272h-22.627c-2.749,0-4.997,2.246-4.997,4.997
				l0,0c0,2.751,2.248,5,4.997,5h22.627c2.749,0,4.997-2.249,4.997-5l0,0C382.059,345.518,379.81,343.272,377.061,343.272z"/>
			<path style="fill-rule:evenodd;clip-rule:evenodd;fill:#A36E4E;" d="M382.713,348.252h-33.93c-1.544,0-2.807,1.264-2.807,2.807
				l0,0c0,1.545,1.263,2.806,2.807,2.806h33.93c1.544,0,2.806-1.261,2.806-2.806l0,0
				C385.519,349.516,384.257,348.252,382.713,348.252z"/>
			<g>
				<path style="fill-rule:evenodd;clip-rule:evenodd;fill:#0C0E0E;" d="M365.748,385.31c5.783,0,10.501-4.719,10.501-10.501
					c0-5.785-4.718-10.501-10.501-10.501c-5.784,0-10.502,4.716-10.502,10.501C355.246,380.591,359.964,385.31,365.748,385.31z"/>
				<path style="fill-rule:evenodd;clip-rule:evenodd;fill:#FFFAF9;" d="M365.749,384.052c5.091,0,9.243-4.154,9.243-9.243
					c0-5.092-4.152-9.246-9.243-9.246c-5.092,0-9.244,4.154-9.244,9.246C356.505,379.897,360.657,384.052,365.749,384.052z"/>
				<path style="fill-rule:evenodd;clip-rule:evenodd;" d="M365.748,367.378L365.748,367.378c-2.457,0-4.468,2.01-4.468,4.469v5.924
					c0,1.936,1.248,3.595,2.979,4.213v-4.744c0-1.629,0.256-1.868,0.884-2.45c0.082-0.078,0.173-0.161,0.298-0.287
					c0.145-0.145,0.301-0.275,0.458-0.406c0.59-0.492,1.204-1.008,1.204-2.912v-3.594
					C366.676,367.453,366.221,367.378,365.748,367.378L365.748,367.378z M365.127,382.194v-4.955c0-1.256,0.175-1.417,0.605-1.818
					c0.104-0.098,0.22-0.206,0.323-0.306c0.128-0.129,0.261-0.242,0.399-0.356c0.741-0.621,1.516-1.267,1.516-3.575v-3.21
					c1.339,0.774,2.245,2.222,2.245,3.873v5.924c0,2.459-2.01,4.469-4.468,4.469l0,0
					C365.537,382.239,365.33,382.223,365.127,382.194z"/>
			</g>
			<path style="fill-rule:evenodd;clip-rule:evenodd;fill:#794C34;" d="M348.123,349.159c0,1.005,0.535,1.891,1.335,2.387
				c0.429,0.267,0.933,0.42,1.472,0.42h0.15h29.336h1.611h2.832c0.18,0,0.355-0.017,0.525-0.05
				c-0.365,1.127-1.427,1.948-2.672,1.948h-0.821h-32.287h-0.821c-1.544,0-2.807-1.264-2.807-2.806c0-1.364,0.987-2.509,2.282-2.757
				C348.171,348.572,348.123,348.861,348.123,349.159z"/>
			<path style="fill-rule:evenodd;clip-rule:evenodd;fill:#FADFD3;" d="M351.748,344.06c0.772,1.771,2.541,3.015,4.585,3.015h0.699
				h17.432h4.497c0.986,0,1.909-0.289,2.688-0.788c0.262,0.604,0.409,1.27,0.412,1.966h-5.726h-21.171h-5.726
				C349.443,346.498,350.364,344.947,351.748,344.06z"/>
			<path style="fill-rule:evenodd;clip-rule:evenodd;fill:#FADFD3;" d="M354.703,356.272c-0.357,0-0.666,0.134-0.91,0.396
				c-0.245,0.262-0.357,0.579-0.331,0.935l0.206,2.915h-3.518c-0.025,0-0.051,0-0.075,0.003l-0.471-6.657h32.287l-0.169,2.408
				H354.703L354.703,356.272z M356.009,389.099l0.339,4.789c0.043,0.606,0.547,1.077,1.156,1.077h21.288
				c-0.458,1.309-1.668,3.079-4.86,3.079c-5.061,0-8.195,0-8.195,0s-3.132,0-8.193,0c-5.06,0-5.141-4.449-5.141-4.449l-0.318-4.496
				H356.009z"/>
			<path style="fill-rule:evenodd;clip-rule:evenodd;fill:#794C34;" d="M353.533,361.674l1.867,26.42
				c0.039,0.568,0.509,1.005,1.078,1.005h-0.47h-3.913h-0.012h-0.065c-0.568,0-1.036-0.436-1.076-1.005l-1.87-26.42
				c-0.021-0.31,0.077-0.585,0.289-0.813c0.194-0.206,0.436-0.322,0.714-0.339c0.024-0.003,0.05-0.003,0.075-0.003h3.518h0.94
				c-0.311,0-0.577,0.116-0.789,0.342C353.607,361.089,353.511,361.364,353.533,361.674z"/>
		</g>
		<g>
			<path style="fill-rule:evenodd;clip-rule:evenodd;fill:#7CBEE2;" d="M110.901,238.455h60.562c3.07,0,5.583,2.514,5.583,5.583
				v14.688v1.701v14.657c0,0.26-0.148,0.48-0.384,0.577c-0.238,0.1-0.498,0.047-0.679-0.134l-9.516-9.516h-55.566
				c-3.071,0-5.585-2.512-5.585-5.585v-16.39C105.316,240.966,107.829,238.455,110.901,238.455z"/>
			<path style="fill-rule:evenodd;clip-rule:evenodd;fill:#FFFFFF;" d="M118.253,256.327l-7.265-3.205v-1.047l7.265-3.627v1.757
				l-5.006,2.319l5.006,2.055V256.327L118.253,256.327z M120.915,254.261v-0.543c0-0.465,0.101-0.874,0.301-1.219
				c0.199-0.346,0.564-0.716,1.096-1.105c0.511-0.365,0.849-0.66,1.013-0.891c0.163-0.228,0.245-0.484,0.245-0.768
				c0-0.315-0.118-0.557-0.352-0.721c-0.235-0.167-0.56-0.251-0.979-0.251c-0.733,0-1.566,0.239-2.502,0.715l-0.798-1.598
				c1.087-0.609,2.24-0.916,3.459-0.916c1.004,0,1.803,0.242,2.397,0.724c0.591,0.484,0.885,1.127,0.885,1.932
				c0,0.537-0.12,0.997-0.365,1.387c-0.244,0.39-0.706,0.829-1.391,1.316c-0.466,0.348-0.763,0.609-0.887,0.791
				c-0.124,0.181-0.187,0.414-0.187,0.707v0.439H120.915L120.915,254.261z M120.681,256.764c0-0.412,0.109-0.721,0.329-0.93
				c0.22-0.209,0.538-0.314,0.956-0.314c0.408,0,0.72,0.108,0.942,0.322c0.221,0.215,0.331,0.522,0.331,0.922
				c0,0.385-0.111,0.688-0.337,0.91c-0.223,0.223-0.534,0.332-0.937,0.332c-0.409,0-0.727-0.106-0.948-0.323
				C120.792,257.466,120.681,257.156,120.681,256.764L120.681,256.764z M129.654,252.148h0.746c0.699,0,1.222-0.136,1.566-0.414
				c0.347-0.273,0.52-0.677,0.52-1.203c0-0.532-0.145-0.924-0.435-1.178c-0.29-0.253-0.745-0.381-1.366-0.381h-1.031V252.148
				L129.654,252.148z M134.775,250.45c0,1.153-0.36,2.033-1.079,2.642c-0.718,0.609-1.743,0.913-3.068,0.913h-0.974v3.806h-2.268
				v-10.696h3.416c1.299,0,2.284,0.281,2.961,0.838C134.438,248.512,134.775,249.344,134.775,250.45L134.775,250.45z
				 M145.556,257.81h-2.261v-4.613h-4.234v4.613h-2.266v-10.696h2.266v4.195h4.234v-4.195h2.261V257.81L145.556,257.81z
				 M150.524,252.148h0.746c0.7,0,1.222-0.136,1.566-0.414c0.348-0.273,0.519-0.677,0.519-1.203c0-0.532-0.145-0.924-0.435-1.178
				c-0.289-0.253-0.743-0.381-1.365-0.381h-1.032V252.148L150.524,252.148z M155.645,250.45c0,1.153-0.359,2.033-1.079,2.642
				c-0.718,0.609-1.743,0.913-3.068,0.913h-0.975v3.806h-2.266v-10.696h3.415c1.299,0,2.285,0.281,2.962,0.838
				C155.309,248.512,155.645,249.344,155.645,250.45L155.645,250.45z M158.339,254.261v-0.543c0-0.465,0.1-0.874,0.301-1.219
				c0.199-0.346,0.563-0.716,1.095-1.105c0.512-0.365,0.849-0.66,1.014-0.891c0.163-0.228,0.245-0.484,0.245-0.768
				c0-0.315-0.117-0.557-0.352-0.721c-0.235-0.167-0.56-0.251-0.979-0.251c-0.732,0-1.566,0.239-2.501,0.715l-0.796-1.598
				c1.086-0.609,2.239-0.916,3.458-0.916c1.003,0,1.803,0.242,2.397,0.724c0.592,0.484,0.885,1.127,0.885,1.932
				c0,0.537-0.12,0.997-0.363,1.387c-0.245,0.39-0.707,0.829-1.392,1.316c-0.466,0.348-0.763,0.609-0.885,0.791
				c-0.125,0.181-0.188,0.414-0.188,0.707v0.439H158.339L158.339,254.261z M158.105,256.764c0-0.412,0.11-0.721,0.329-0.93
				c0.22-0.209,0.537-0.314,0.956-0.314c0.408,0,0.72,0.108,0.942,0.322c0.222,0.215,0.332,0.522,0.332,0.922
				c0,0.385-0.111,0.688-0.337,0.91c-0.221,0.223-0.535,0.332-0.937,0.332c-0.409,0-0.725-0.106-0.948-0.323
				C158.218,257.466,158.105,257.156,158.105,256.764L158.105,256.764z M164.109,254.578l5.007-2.055l-5.007-2.319v-1.757
				l7.266,3.627v1.047l-7.266,3.205V254.578z"/>
		</g>
		<g>
			<path style="fill-rule:evenodd;clip-rule:evenodd;fill:#AABD46;" d="M127.8,376.88l2.911,3.645h13.228l2.909-3.645
				C157.3,348.686,117.347,348.686,127.8,376.88z"/>
			<path style="fill-rule:evenodd;clip-rule:evenodd;fill:#CCDE6F;" d="M131.569,376.88l1.758,3.645h7.995l1.758-3.645
				C149.395,348.686,125.252,348.686,131.569,376.88z"/>
			<g>
				<path style="fill-rule:evenodd;clip-rule:evenodd;fill:#A36E4E;" d="M148.667,374.539h-22.686c-0.786,0-1.428,0.64-1.428,1.425
					v6.481c0,0.788,0.642,1.428,1.428,1.428h22.686c0.787,0,1.428-0.64,1.428-1.428v-6.481
					C150.095,375.179,149.454,374.539,148.667,374.539z"/>
				<polygon style="fill-rule:evenodd;clip-rule:evenodd;fill:#A36E4E;" points="144.891,379.809 129.757,379.809 125.806,383.873 
					129.033,398.044 137.324,398.044 145.614,398.044 148.843,383.873 				"/>
				<polygon style="fill-rule:evenodd;clip-rule:evenodd;fill:#794C34;" points="125.806,383.873 126.469,386.669 148.179,386.669 
					148.843,383.873 				"/>
			</g>
		</g>
		<g>
			<path style="fill-rule:evenodd;clip-rule:evenodd;fill:#D84F50;" d="M115.056,292.836h1.487c0.363,0,0.661,0.298,0.661,0.663l0,0
				c0,0.361-0.298,0.659-0.661,0.659h-1.487c-0.365,0-0.661-0.298-0.661-0.659l0,0C114.395,293.134,114.691,292.836,115.056,292.836
				z"/>
			<path style="fill-rule:evenodd;clip-rule:evenodd;fill:#D84F50;" d="M113.642,303.073h-8.373c-0.365,0-0.661,0.295-0.661,0.659
				l0,0c0,0.365,0.296,0.663,0.661,0.663h8.373c0.365,0,0.661-0.298,0.661-0.663l0,0
				C114.303,303.368,114.006,303.073,113.642,303.073z"/>
			<path style="fill-rule:evenodd;clip-rule:evenodd;fill:#D84F50;" d="M120.945,307.809h7.014c0.364,0,0.662,0.298,0.662,0.66l0,0
				c0,0.364-0.298,0.662-0.662,0.662h-7.014c-0.365,0-0.661-0.298-0.661-0.662l0,0C120.284,308.106,120.581,307.809,120.945,307.809
				z"/>
			<path style="fill-rule:evenodd;clip-rule:evenodd;fill:#D84F50;" d="M125.927,316.726h2.032c0.364,0,0.662,0.298,0.662,0.66l0,0
				c0,0.364-0.298,0.662-0.662,0.662h-2.032c-0.363,0-0.661-0.298-0.661-0.662l0,0C125.266,317.023,125.564,316.726,125.927,316.726
				z"/>
			<path style="fill-rule:evenodd;clip-rule:evenodd;fill:#D84F50;" d="M88.413,326.194h20.426c0.363,0,0.661,0.298,0.661,0.662l0,0
				c0,0.362-0.298,0.66-0.661,0.66H88.413c-0.364,0-0.662-0.298-0.662-0.66l0,0C87.752,326.492,88.049,326.194,88.413,326.194z"/>
			<path style="fill-rule:evenodd;clip-rule:evenodd;fill:#D84F50;" d="M113.642,330.933h-8.373c-0.365,0-0.661,0.295-0.661,0.66
				l0,0c0,0.364,0.296,0.662,0.661,0.662h8.373c0.365,0,0.661-0.298,0.661-0.662l0,0
				C114.303,331.228,114.006,330.933,113.642,330.933z"/>
			<path style="fill-rule:evenodd;clip-rule:evenodd;fill:#D84F50;" d="M120.945,335.668h7.014c0.364,0,0.662,0.298,0.662,0.66l0,0
				c0,0.364-0.298,0.662-0.662,0.662h-7.014c-0.365,0-0.661-0.298-0.661-0.662l0,0C120.284,335.966,120.581,335.668,120.945,335.668
				z"/>
			<path style="fill-rule:evenodd;clip-rule:evenodd;fill:#D84F50;" d="M125.927,344.585h2.032c0.364,0,0.662,0.298,0.662,0.66l0,0
				c0,0.365-0.298,0.663-0.662,0.663h-2.032c-0.363,0-0.661-0.298-0.661-0.663l0,0C125.266,344.883,125.564,344.585,125.927,344.585
				z"/>
			<path style="fill-rule:evenodd;clip-rule:evenodd;fill:#D84F50;" d="M88.413,354.054h20.426c0.363,0,0.661,0.298,0.661,0.663l0,0
				c0,0.361-0.298,0.659-0.661,0.659H88.413c-0.364,0-0.662-0.298-0.662-0.659l0,0C87.752,354.352,88.049,354.054,88.413,354.054z"
				/>
			<g>
				<path style="fill-rule:evenodd;clip-rule:evenodd;fill:#7897A8;" d="M143.78,292.836h10.747c0.363,0,0.661,0.298,0.661,0.663
					l0,0c0,0.361-0.298,0.659-0.661,0.659H143.78c-0.363,0-0.661-0.298-0.661-0.659l0,0
					C143.119,293.134,143.417,292.836,143.78,292.836z"/>
				<path style="fill-rule:evenodd;clip-rule:evenodd;fill:#7897A8;" d="M103.455,297.293h21.061c0.364,0,0.661,0.299,0.661,0.663
					l0,0c0,0.364-0.297,0.66-0.661,0.66h-21.061c-0.364,0-0.662-0.296-0.662-0.66l0,0
					C102.793,297.592,103.091,297.293,103.455,297.293z"/>
				<path style="fill-rule:evenodd;clip-rule:evenodd;fill:#7897A8;" d="M128.142,297.293h-0.854c-0.365,0-0.663,0.299-0.663,0.663
					l0,0c0,0.364,0.298,0.66,0.663,0.66h0.854c0.363,0,0.661-0.296,0.661-0.66l0,0C128.803,297.592,128.505,297.293,128.142,297.293
					z"/>
				<path style="fill-rule:evenodd;clip-rule:evenodd;fill:#7897A8;" d="M154.526,297.293h-23.705c-0.363,0-0.661,0.299-0.661,0.663
					l0,0c0,0.364,0.298,0.66,0.661,0.66h23.705c0.364,0,0.661-0.296,0.661-0.66l0,0
					C155.188,297.592,154.891,297.293,154.526,297.293z"/>
				<path style="fill-rule:evenodd;clip-rule:evenodd;fill:#7897A8;" d="M120.31,292.836h20.08c0.365,0,0.662,0.298,0.662,0.663l0,0
					c0,0.361-0.297,0.659-0.662,0.659h-20.08c-0.363,0-0.661-0.298-0.661-0.659l0,0C119.649,293.134,119.947,292.836,120.31,292.836
					z"/>
				<path style="fill-rule:evenodd;clip-rule:evenodd;fill:#7897A8;" d="M71.83,303.073h30.213c0.363,0,0.661,0.295,0.661,0.659l0,0
					c0,0.365-0.298,0.663-0.661,0.663H71.83c-0.363,0-0.662-0.298-0.662-0.663l0,0C71.169,303.368,71.467,303.073,71.83,303.073z"/>
				<path style="fill-rule:evenodd;clip-rule:evenodd;fill:#7897A8;" d="M116.505,303.073h30.213c0.363,0,0.661,0.295,0.661,0.659
					l0,0c0,0.365-0.298,0.663-0.661,0.663h-30.213c-0.365,0-0.661-0.298-0.661-0.663l0,0
					C115.844,303.368,116.14,303.073,116.505,303.073z"/>
				<path style="fill-rule:evenodd;clip-rule:evenodd;fill:#7897A8;" d="M132.001,307.809h10.911c0.365,0,0.661,0.298,0.661,0.66
					l0,0c0,0.364-0.296,0.662-0.661,0.662h-10.911c-0.365,0-0.661-0.298-0.661-0.662l0,0
					C131.339,308.106,131.636,307.809,132.001,307.809z"/>
				<path style="fill-rule:evenodd;clip-rule:evenodd;fill:#7897A8;" d="M69.656,307.809h47.703c0.363,0,0.66,0.298,0.66,0.66l0,0
					c0,0.364-0.296,0.662-0.66,0.662H69.656c-0.363,0-0.662-0.298-0.662-0.662l0,0C68.994,308.106,69.293,307.809,69.656,307.809z"
					/>
				<path style="fill-rule:evenodd;clip-rule:evenodd;fill:#7897A8;" d="M95.21,312.321h47.701c0.365,0,0.661,0.298,0.661,0.66l0,0
					c0,0.364-0.296,0.662-0.661,0.662H95.21c-0.365,0-0.661-0.298-0.661-0.662l0,0C94.549,312.619,94.845,312.321,95.21,312.321z"/>
				<path style="fill-rule:evenodd;clip-rule:evenodd;fill:#7897A8;" d="M132.001,316.726h10.911c0.365,0,0.661,0.298,0.661,0.66
					l0,0c0,0.364-0.296,0.662-0.661,0.662h-10.911c-0.365,0-0.661-0.298-0.661-0.662l0,0
					C131.339,317.023,131.636,316.726,132.001,316.726z"/>
				<path style="fill-rule:evenodd;clip-rule:evenodd;fill:#7897A8;" d="M88.413,316.726h33.657c0.363,0,0.661,0.298,0.661,0.66l0,0
					c0,0.364-0.298,0.662-0.661,0.662H88.413c-0.364,0-0.662-0.298-0.662-0.662l0,0C87.752,317.023,88.049,316.726,88.413,316.726z"
					/>
				<path style="fill-rule:evenodd;clip-rule:evenodd;fill:#7897A8;" d="M95.21,321.459h52.775c0.364,0,0.662,0.298,0.662,0.662l0,0
					c0,0.365-0.298,0.66-0.662,0.66H95.21c-0.365,0-0.661-0.295-0.661-0.66l0,0C94.549,321.757,94.845,321.459,95.21,321.459z"/>
				<path style="fill-rule:evenodd;clip-rule:evenodd;fill:#7897A8;" d="M113.604,326.194h34.381c0.364,0,0.662,0.298,0.662,0.662
					l0,0c0,0.362-0.298,0.66-0.662,0.66h-34.381c-0.363,0-0.661-0.298-0.661-0.66l0,0
					C112.943,326.492,113.241,326.194,113.604,326.194z"/>
				<path style="fill-rule:evenodd;clip-rule:evenodd;fill:#7897A8;" d="M71.83,330.933h30.213c0.363,0,0.661,0.295,0.661,0.66l0,0
					c0,0.364-0.298,0.662-0.661,0.662H71.83c-0.363,0-0.662-0.298-0.662-0.662l0,0C71.169,331.228,71.467,330.933,71.83,330.933z"/>
				<path style="fill-rule:evenodd;clip-rule:evenodd;fill:#7897A8;" d="M116.505,330.933h30.213c0.363,0,0.661,0.295,0.661,0.66
					l0,0c0,0.364-0.298,0.662-0.661,0.662h-30.213c-0.365,0-0.661-0.298-0.661-0.662l0,0
					C115.844,331.228,116.14,330.933,116.505,330.933z"/>
				<path style="fill-rule:evenodd;clip-rule:evenodd;fill:#7897A8;" d="M132.001,335.668h10.911c0.365,0,0.661,0.298,0.661,0.66
					l0,0c0,0.364-0.296,0.662-0.661,0.662h-10.911c-0.365,0-0.661-0.298-0.661-0.662l0,0
					C131.339,335.966,131.636,335.668,132.001,335.668z"/>
				<path style="fill-rule:evenodd;clip-rule:evenodd;fill:#7897A8;" d="M69.656,335.668h47.703c0.363,0,0.66,0.298,0.66,0.66l0,0
					c0,0.364-0.296,0.662-0.66,0.662H69.656c-0.363,0-0.662-0.298-0.662-0.662l0,0C68.994,335.966,69.293,335.668,69.656,335.668z"
					/>
				<path style="fill-rule:evenodd;clip-rule:evenodd;fill:#7897A8;" d="M95.21,340.181h47.701c0.365,0,0.661,0.298,0.661,0.66l0,0
					c0,0.365-0.296,0.663-0.661,0.663H95.21c-0.365,0-0.661-0.298-0.661-0.663l0,0C94.549,340.478,94.845,340.181,95.21,340.181z"/>
				<path style="fill-rule:evenodd;clip-rule:evenodd;fill:#7897A8;" d="M132.001,344.585h10.911c0.365,0,0.661,0.298,0.661,0.66
					l0,0c0,0.365-0.296,0.663-0.661,0.663h-10.911c-0.365,0-0.661-0.298-0.661-0.663l0,0
					C131.339,344.883,131.636,344.585,132.001,344.585z"/>
				<path style="fill-rule:evenodd;clip-rule:evenodd;fill:#7897A8;" d="M88.413,344.585h33.657c0.363,0,0.661,0.298,0.661,0.66l0,0
					c0,0.365-0.298,0.663-0.661,0.663H88.413c-0.364,0-0.662-0.298-0.662-0.663l0,0C87.752,344.883,88.049,344.585,88.413,344.585z"
					/>
				<path style="fill-rule:evenodd;clip-rule:evenodd;fill:#7897A8;" d="M95.21,349.318h52.775c0.364,0,0.662,0.298,0.662,0.662l0,0
					c0,0.365-0.298,0.66-0.662,0.66H95.21c-0.365,0-0.661-0.295-0.661-0.66l0,0C94.549,349.616,94.845,349.318,95.21,349.318z"/>
				<path style="fill-rule:evenodd;clip-rule:evenodd;fill:#7897A8;" d="M113.604,354.054h34.381c0.364,0,0.662,0.298,0.662,0.663
					l0,0c0,0.361-0.298,0.659-0.662,0.659h-34.381c-0.363,0-0.661-0.298-0.661-0.659l0,0
					C112.943,354.352,113.241,354.054,113.604,354.054z"/>
			</g>
		</g>
		<g>
			<path style="fill-rule:evenodd;clip-rule:evenodd;fill:#7CBEE2;" d="M283.853,113.596h41.34c3.002,0,5.459,2.456,5.459,5.46
				v17.525v1.665v14.332c0,0.252-0.143,0.466-0.376,0.564c-0.233,0.096-0.485,0.046-0.664-0.134l-9.304-9.303h-36.455
				c-3.003,0-5.46-2.457-5.46-5.459v-19.19C278.394,116.053,280.851,113.596,283.853,113.596z"/>
			<path style="fill-rule:evenodd;clip-rule:evenodd;fill:#FFFFFF;" d="M293.72,133.929h-2.267v-4.627h-4.247v4.627h-2.272v-10.727
				h2.272v4.207h4.247v-4.207h2.267V133.929L293.72,133.929z M300.565,133.929h-2.273v-8.834h-2.913v-1.893h8.099v1.893h-2.912
				V133.929L300.565,133.929z M309.674,133.929l-2.585-8.416h-0.065c0.093,1.712,0.141,2.855,0.141,3.426v4.99h-2.034v-10.727h3.099
				l2.536,8.203h0.045l2.694-8.203h3.095v10.727h-2.12v-5.078c0-0.238,0.004-0.515,0.013-0.83c0.007-0.312,0.04-1.144,0.098-2.493
				h-0.065l-2.768,8.401H309.674L309.674,133.929z M319.296,133.929v-10.727h2.273v8.849h4.352v1.878H319.296z"/>
		</g>
		<path style="fill-rule:evenodd;clip-rule:evenodd;fill:#FFFFFF;" d="M109.507,194.935c1.339,0,2.432-1.093,2.432-2.433
			c0-1.339-1.093-2.432-2.432-2.432c-1.339,0-2.432,1.092-2.432,2.432C107.076,193.842,108.168,194.935,109.507,194.935z"/>
		<path style="fill-rule:evenodd;clip-rule:evenodd;fill:#FFFFFF;" d="M321.894,258.364c1.341,0,2.433-1.094,2.433-2.433
			c0-1.34-1.092-2.431-2.433-2.431c-1.339,0-2.432,1.091-2.432,2.431C319.462,257.271,320.555,258.364,321.894,258.364z"/>
		<path style="fill-rule:evenodd;clip-rule:evenodd;fill:#FFFFFF;" d="M378.197,157.16c1.341,0,2.433-1.093,2.433-2.432
			c0-1.339-1.092-2.432-2.433-2.432c-1.339,0-2.432,1.093-2.432,2.432C375.766,156.067,376.858,157.16,378.197,157.16z"/>
		<path style="fill-rule:evenodd;clip-rule:evenodd;fill:#FFFFFF;" d="M420.247,383.088c1.341,0,2.434-1.091,2.434-2.433
			c0-1.339-1.093-2.431-2.434-2.431c-1.339,0-2.432,1.092-2.432,2.431C417.815,381.997,418.908,383.088,420.247,383.088z"/>
		<path style="fill-rule:evenodd;clip-rule:evenodd;fill:#FFFFFF;" d="M88.126,383.801c1.339,0,2.432-1.091,2.432-2.433
			c0-1.34-1.093-2.431-2.432-2.431c-1.339,0-2.432,1.091-2.432,2.431C85.694,382.71,86.787,383.801,88.126,383.801z"/>
		<path style="fill-rule:evenodd;clip-rule:evenodd;fill:#FFFFFF;" d="M212.137,101.64c0.609,0,1.107-0.496,1.107-1.105
			c0-0.608-0.497-1.105-1.107-1.105c-0.608,0-1.105,0.497-1.105,1.105C211.032,101.145,211.529,101.64,212.137,101.64z"/>
		<path style="fill-rule:evenodd;clip-rule:evenodd;fill:#FFFFFF;" d="M136.59,167.209c0.609,0,1.106-0.495,1.106-1.105
			c0-0.608-0.497-1.105-1.106-1.105c-0.608,0-1.105,0.497-1.105,1.105C135.485,166.714,135.982,167.209,136.59,167.209z"/>
		<g>
			<path style="fill-rule:evenodd;clip-rule:evenodd;fill:#9CC6E0;" d="M316.517,172.694h67.985c1.939,0,3.526,1.587,3.526,3.526
				v51.87c0,1.939-1.587,3.525-3.526,3.525h-67.985c-1.938,0-3.524-1.586-3.524-3.525v-51.87
				C312.992,174.281,314.579,172.694,316.517,172.694z"/>
			<path style="fill-rule:evenodd;clip-rule:evenodd;fill:#FFFFFF;" d="M314.691,170.817h67.985c1.939,0,3.525,1.585,3.525,3.524
				v51.87c0,1.939-1.586,3.526-3.525,3.526h-67.985c-1.939,0-3.525-1.587-3.525-3.526v-51.87
				C311.166,172.403,312.753,170.817,314.691,170.817z"/>
			<path style="fill-rule:evenodd;clip-rule:evenodd;fill:#252626;" d="M314.691,170.817h67.985c1.939,0,3.525,1.585,3.525,3.524
				v4.868c0,0.543-0.444,0.987-0.987,0.987h-73.063c-0.543,0-0.986-0.444-0.986-0.987v-4.868
				C311.166,172.403,312.753,170.817,314.691,170.817z"/>
			<path style="fill-rule:evenodd;clip-rule:evenodd;fill:#0C0E0E;" d="M316.87,184.127h19.058c0.402,0,0.732,0.329,0.732,0.732l0,0
				c0,0.404-0.33,0.732-0.732,0.732H316.87c-0.402,0-0.732-0.328-0.732-0.732l0,0C316.138,184.456,316.468,184.127,316.87,184.127z"
				/>
			<path style="fill-rule:evenodd;clip-rule:evenodd;fill:#0C0E0E;" d="M335.928,187.358h-8.514c-0.401,0-0.732,0.33-0.732,0.732
				l0,0c0,0.402,0.33,0.732,0.732,0.732h8.514c0.402,0,0.732-0.33,0.732-0.732l0,0C336.66,187.689,336.33,187.358,335.928,187.358z"
				/>
			<path style="fill-rule:evenodd;clip-rule:evenodd;fill:#0C0E0E;" d="M323.7,187.358h0.676c0.403,0,0.732,0.33,0.732,0.732l0,0
				c0,0.402-0.329,0.732-0.732,0.732H323.7c-0.403,0-0.731-0.33-0.731-0.732l0,0C322.969,187.689,323.297,187.358,323.7,187.358z"/>
			<path style="fill-rule:evenodd;clip-rule:evenodd;fill:#0C0E0E;" d="M316.87,187.358h4.265c0.402,0,0.732,0.33,0.732,0.732l0,0
				c0,0.402-0.33,0.732-0.732,0.732h-4.265c-0.402,0-0.732-0.33-0.732-0.732l0,0C316.138,187.689,316.468,187.358,316.87,187.358z"
				/>
			<path style="fill-rule:evenodd;clip-rule:evenodd;fill:#0C0E0E;" d="M316.87,191.19h19.058c0.402,0,0.732,0.33,0.732,0.732v0.001
				c0,0.402-0.33,0.732-0.732,0.732H316.87c-0.402,0-0.732-0.33-0.732-0.732v-0.001C316.138,191.52,316.468,191.19,316.87,191.19z"
				/>
			<path style="fill-rule:evenodd;clip-rule:evenodd;fill:#0C0E0E;" d="M316.87,194.423h8.514c0.402,0,0.732,0.329,0.732,0.732l0,0
				c0,0.402-0.33,0.732-0.732,0.732h-8.514c-0.402,0-0.732-0.33-0.732-0.732l0,0C316.138,194.751,316.468,194.423,316.87,194.423z"
				/>
			<path style="fill-rule:evenodd;clip-rule:evenodd;fill:#0C0E0E;" d="M329.098,194.423h-0.676c-0.403,0-0.732,0.329-0.732,0.732
				l0,0c0,0.402,0.328,0.732,0.732,0.732h0.676c0.403,0,0.732-0.33,0.732-0.732l0,0C329.83,194.751,329.501,194.423,329.098,194.423
				z"/>
			<path style="fill-rule:evenodd;clip-rule:evenodd;fill:#0C0E0E;" d="M335.928,194.423h-4.264c-0.403,0-0.733,0.329-0.733,0.732
				l0,0c0,0.402,0.329,0.732,0.733,0.732h4.264c0.402,0,0.732-0.33,0.732-0.732l0,0C336.66,194.751,336.33,194.423,335.928,194.423z
				"/>
			<path style="fill-rule:evenodd;clip-rule:evenodd;fill:#0C0E0E;" d="M316.87,198.255h19.058c0.402,0,0.732,0.33,0.732,0.732
				v0.001c0,0.402-0.33,0.73-0.732,0.73H316.87c-0.402,0-0.732-0.328-0.732-0.73v-0.001
				C316.138,198.585,316.468,198.255,316.87,198.255z"/>
			<path style="fill-rule:evenodd;clip-rule:evenodd;fill:#0C0E0E;" d="M335.928,201.486h-8.514c-0.401,0-0.732,0.33-0.732,0.733
				l0,0c0,0.403,0.33,0.732,0.732,0.732h8.514c0.402,0,0.732-0.329,0.732-0.732l0,0C336.66,201.816,336.33,201.486,335.928,201.486z
				"/>
			<path style="fill-rule:evenodd;clip-rule:evenodd;fill:#0C0E0E;" d="M323.7,201.486h0.676c0.403,0,0.732,0.33,0.732,0.733l0,0
				c0,0.403-0.329,0.732-0.732,0.732H323.7c-0.403,0-0.731-0.329-0.731-0.732l0,0C322.969,201.816,323.297,201.486,323.7,201.486z"
				/>
			<path style="fill-rule:evenodd;clip-rule:evenodd;fill:#0C0E0E;" d="M316.87,201.486h4.265c0.402,0,0.732,0.33,0.732,0.733l0,0
				c0,0.403-0.33,0.732-0.732,0.732h-4.265c-0.402,0-0.732-0.329-0.732-0.732l0,0C316.138,201.816,316.468,201.486,316.87,201.486z"
				/>
			<path style="fill-rule:evenodd;clip-rule:evenodd;fill:#0C0E0E;" d="M316.87,205.319h19.058c0.402,0,0.732,0.329,0.732,0.732l0,0
				c0,0.404-0.33,0.732-0.732,0.732H316.87c-0.402,0-0.732-0.328-0.732-0.732l0,0C316.138,205.648,316.468,205.319,316.87,205.319z"
				/>
			<path style="fill-rule:evenodd;clip-rule:evenodd;fill:#0C0E0E;" d="M316.87,208.55h8.514c0.402,0,0.732,0.329,0.732,0.732l0,0
				c0,0.403-0.33,0.732-0.732,0.732h-8.514c-0.402,0-0.732-0.329-0.732-0.732l0,0C316.138,208.879,316.468,208.55,316.87,208.55z"/>
			<path style="fill-rule:evenodd;clip-rule:evenodd;fill:#0C0E0E;" d="M335.252,208.55h0.676c0.402,0,0.732,0.329,0.732,0.732l0,0
				c0,0.403-0.33,0.732-0.732,0.732h-0.676c-0.402,0-0.733-0.329-0.733-0.732l0,0C334.52,208.879,334.85,208.55,335.252,208.55z"/>
			<path style="fill-rule:evenodd;clip-rule:evenodd;fill:#0C0E0E;" d="M328.421,208.55h4.266c0.401,0,0.732,0.329,0.732,0.732l0,0
				c0,0.403-0.33,0.732-0.732,0.732h-4.266c-0.402,0-0.732-0.329-0.732-0.732l0,0C327.688,208.879,328.019,208.55,328.421,208.55z"
				/>
			<path style="fill-rule:evenodd;clip-rule:evenodd;fill:#0C0E0E;" d="M316.87,212.382h19.058c0.402,0,0.732,0.33,0.732,0.732
				v0.001c0,0.402-0.33,0.73-0.732,0.73H316.87c-0.402,0-0.732-0.328-0.732-0.73v-0.001
				C316.138,212.712,316.468,212.382,316.87,212.382z"/>
			<path style="fill-rule:evenodd;clip-rule:evenodd;fill:#0C0E0E;" d="M329.098,215.615h-8.514c-0.402,0-0.732,0.329-0.732,0.731
				v0.001c0,0.402,0.33,0.732,0.732,0.732h8.514c0.403,0,0.732-0.33,0.732-0.732v-0.001
				C329.83,215.943,329.501,215.615,329.098,215.615z"/>
			<path style="fill-rule:evenodd;clip-rule:evenodd;fill:#0C0E0E;" d="M316.87,215.615h0.677c0.402,0,0.732,0.329,0.732,0.731
				v0.001c0,0.402-0.33,0.732-0.732,0.732h-0.677c-0.402,0-0.732-0.33-0.732-0.732v-0.001
				C316.138,215.943,316.468,215.615,316.87,215.615z"/>
			<path style="fill-rule:evenodd;clip-rule:evenodd;fill:#0C0E0E;" d="M335.928,215.615h-4.264c-0.403,0-0.733,0.329-0.733,0.731
				v0.001c0,0.402,0.329,0.732,0.733,0.732h4.264c0.402,0,0.732-0.33,0.732-0.732v-0.001
				C336.66,215.943,336.33,215.615,335.928,215.615z"/>
			<path style="fill-rule:evenodd;clip-rule:evenodd;fill:#0C0E0E;" d="M316.87,219.447h19.058c0.402,0,0.732,0.33,0.732,0.732
				v0.001c0,0.402-0.33,0.73-0.732,0.73H316.87c-0.402,0-0.732-0.328-0.732-0.73v-0.001
				C316.138,219.777,316.468,219.447,316.87,219.447z"/>
			<path style="fill-rule:evenodd;clip-rule:evenodd;fill:#0C0E0E;" d="M316.87,222.678h8.514c0.402,0,0.732,0.33,0.732,0.732l0,0
				c0,0.403-0.33,0.732-0.732,0.732h-8.514c-0.402,0-0.732-0.329-0.732-0.732l0,0C316.138,223.008,316.468,222.678,316.87,222.678z"
				/>
			<path style="fill-rule:evenodd;clip-rule:evenodd;fill:#0C0E0E;" d="M329.098,222.678h-0.676c-0.403,0-0.732,0.33-0.732,0.732
				l0,0c0,0.403,0.328,0.732,0.732,0.732h0.676c0.403,0,0.732-0.329,0.732-0.732l0,0
				C329.83,223.008,329.501,222.678,329.098,222.678z"/>
			<path style="fill-rule:evenodd;clip-rule:evenodd;fill:#0C0E0E;" d="M335.928,222.678h-4.264c-0.403,0-0.733,0.33-0.733,0.732
				l0,0c0,0.403,0.329,0.732,0.733,0.732h4.264c0.402,0,0.732-0.329,0.732-0.732l0,0C336.66,223.008,336.33,222.678,335.928,222.678
				z"/>
			<path style="fill-rule:evenodd;clip-rule:evenodd;fill:#D84F50;" d="M348.123,184.127h32.242c0.402,0,0.732,0.329,0.732,0.732
				l0,0c0,0.404-0.33,0.732-0.732,0.732h-32.242c-0.403,0-0.731-0.328-0.731-0.732l0,0
				C347.392,184.456,347.72,184.127,348.123,184.127z"/>
			<path style="fill-rule:evenodd;clip-rule:evenodd;fill:#D84F50;" d="M380.365,187.358h-14.924c-0.402,0-0.732,0.33-0.732,0.732
				l0,0c0,0.402,0.33,0.732,0.732,0.732h14.924c0.402,0,0.73-0.33,0.73-0.732l0,0C381.096,187.689,380.768,187.358,380.365,187.358z
				"/>
			<path style="fill-rule:evenodd;clip-rule:evenodd;fill:#D84F50;" d="M359.342,187.358h2.05c0.404,0,0.732,0.33,0.732,0.732l0,0
				c0,0.402-0.328,0.732-0.732,0.732h-2.05c-0.402,0-0.732-0.33-0.732-0.732l0,0C358.609,187.689,358.939,187.358,359.342,187.358z"
				/>
			<path style="fill-rule:evenodd;clip-rule:evenodd;fill:#D84F50;" d="M348.123,187.358h7.944c0.402,0,0.732,0.33,0.732,0.732l0,0
				c0,0.402-0.33,0.732-0.732,0.732h-7.944c-0.403,0-0.731-0.33-0.731-0.732l0,0C347.392,187.689,347.72,187.358,348.123,187.358z"
				/>
			<path style="fill-rule:evenodd;clip-rule:evenodd;fill:#D84F50;" d="M348.123,191.19h32.242c0.402,0,0.732,0.33,0.732,0.732
				v0.001c0,0.402-0.33,0.732-0.732,0.732h-32.242c-0.403,0-0.731-0.33-0.731-0.732v-0.001
				C347.392,191.52,347.72,191.19,348.123,191.19z"/>
			<path style="fill-rule:evenodd;clip-rule:evenodd;fill:#D84F50;" d="M348.123,194.423h14.923c0.403,0,0.732,0.329,0.732,0.732
				l0,0c0,0.402-0.329,0.732-0.732,0.732h-14.923c-0.403,0-0.731-0.33-0.731-0.732l0,0
				C347.392,194.751,347.72,194.423,348.123,194.423z"/>
			<path style="fill-rule:evenodd;clip-rule:evenodd;fill:#D84F50;" d="M369.145,194.423h-2.051c-0.402,0-0.731,0.329-0.731,0.732
				l0,0c0,0.402,0.329,0.732,0.731,0.732h2.051c0.403,0,0.732-0.33,0.732-0.732l0,0
				C369.878,194.751,369.549,194.423,369.145,194.423z"/>
			<path style="fill-rule:evenodd;clip-rule:evenodd;fill:#D84F50;" d="M380.365,194.423h-7.945c-0.402,0-0.732,0.329-0.732,0.732
				l0,0c0,0.402,0.33,0.732,0.732,0.732h7.945c0.402,0,0.732-0.33,0.732-0.732l0,0C381.098,194.751,380.768,194.423,380.365,194.423
				z"/>
			<path style="fill-rule:evenodd;clip-rule:evenodd;fill:#D84F50;" d="M348.123,198.255h32.242c0.402,0,0.732,0.33,0.732,0.732
				v0.001c0,0.402-0.33,0.73-0.732,0.73h-32.242c-0.403,0-0.731-0.328-0.731-0.73v-0.001
				C347.392,198.585,347.72,198.255,348.123,198.255z"/>
			<path style="fill-rule:evenodd;clip-rule:evenodd;fill:#D84F50;" d="M380.365,201.486h-14.924c-0.402,0-0.732,0.33-0.732,0.733
				l0,0c0,0.403,0.33,0.732,0.732,0.732h14.924c0.402,0,0.73-0.329,0.73-0.732l0,0C381.096,201.816,380.768,201.486,380.365,201.486
				z"/>
			<path style="fill-rule:evenodd;clip-rule:evenodd;fill:#D84F50;" d="M359.342,201.486h2.05c0.404,0,0.732,0.33,0.732,0.733l0,0
				c0,0.403-0.328,0.732-0.732,0.732h-2.05c-0.402,0-0.732-0.329-0.732-0.732l0,0C358.609,201.816,358.939,201.486,359.342,201.486z
				"/>
			<path style="fill-rule:evenodd;clip-rule:evenodd;fill:#D84F50;" d="M348.123,201.486h7.944c0.402,0,0.732,0.33,0.732,0.733l0,0
				c0,0.403-0.33,0.732-0.732,0.732h-7.944c-0.403,0-0.731-0.329-0.731-0.732l0,0C347.392,201.816,347.72,201.486,348.123,201.486z"
				/>
			<path style="fill-rule:evenodd;clip-rule:evenodd;fill:#D84F50;" d="M348.123,205.319h32.242c0.402,0,0.732,0.329,0.732,0.732
				l0,0c0,0.404-0.33,0.732-0.732,0.732h-32.242c-0.403,0-0.731-0.328-0.731-0.732l0,0
				C347.392,205.648,347.72,205.319,348.123,205.319z"/>
			<path style="fill-rule:evenodd;clip-rule:evenodd;fill:#D84F50;" d="M348.123,208.55h14.923c0.403,0,0.732,0.329,0.732,0.732l0,0
				c0,0.403-0.329,0.732-0.732,0.732h-14.923c-0.403,0-0.731-0.329-0.731-0.732l0,0C347.392,208.879,347.72,208.55,348.123,208.55z"
				/>
			<path style="fill-rule:evenodd;clip-rule:evenodd;fill:#D84F50;" d="M378.313,208.55h2.052c0.402,0,0.732,0.329,0.732,0.732l0,0
				c0,0.403-0.33,0.732-0.732,0.732h-2.052c-0.402,0-0.732-0.329-0.732-0.732l0,0C377.581,208.879,377.911,208.55,378.313,208.55z"
				/>
			<path style="fill-rule:evenodd;clip-rule:evenodd;fill:#D84F50;" d="M367.095,208.55h7.944c0.404,0,0.732,0.329,0.732,0.732l0,0
				c0,0.403-0.328,0.732-0.732,0.732h-7.944c-0.402,0-0.731-0.329-0.731-0.732l0,0C366.363,208.879,366.692,208.55,367.095,208.55z"
				/>
			<path style="fill-rule:evenodd;clip-rule:evenodd;fill:#D84F50;" d="M348.123,212.382h32.242c0.402,0,0.732,0.33,0.732,0.732
				v0.001c0,0.402-0.33,0.73-0.732,0.73h-32.242c-0.403,0-0.731-0.328-0.731-0.73v-0.001
				C347.392,212.712,347.72,212.382,348.123,212.382z"/>
			<path style="fill-rule:evenodd;clip-rule:evenodd;fill:#D84F50;" d="M369.145,215.615h-14.923c-0.401,0-0.732,0.329-0.732,0.731
				v0.001c0,0.402,0.33,0.732,0.732,0.732h14.923c0.403,0,0.732-0.33,0.732-0.732v-0.001
				C369.878,215.943,369.549,215.615,369.145,215.615z"/>
			<path style="fill-rule:evenodd;clip-rule:evenodd;fill:#D84F50;" d="M348.123,215.615h2.052c0.402,0,0.732,0.329,0.732,0.731
				v0.001c0,0.402-0.33,0.732-0.732,0.732h-2.052c-0.403,0-0.731-0.33-0.731-0.732v-0.001
				C347.392,215.943,347.72,215.615,348.123,215.615z"/>
			<path style="fill-rule:evenodd;clip-rule:evenodd;fill:#D84F50;" d="M380.365,215.615h-7.945c-0.402,0-0.732,0.329-0.732,0.731
				v0.001c0,0.402,0.33,0.732,0.732,0.732h7.945c0.402,0,0.732-0.33,0.732-0.732v-0.001
				C381.098,215.943,380.768,215.615,380.365,215.615z"/>
			<path style="fill-rule:evenodd;clip-rule:evenodd;fill:#D84F50;" d="M348.123,219.447h32.242c0.402,0,0.732,0.33,0.732,0.732
				v0.001c0,0.402-0.33,0.73-0.732,0.73h-32.242c-0.403,0-0.731-0.328-0.731-0.73v-0.001
				C347.392,219.777,347.72,219.447,348.123,219.447z"/>
			<path style="fill-rule:evenodd;clip-rule:evenodd;fill:#D84F50;" d="M348.123,222.678h14.923c0.403,0,0.732,0.33,0.732,0.732l0,0
				c0,0.403-0.329,0.732-0.732,0.732h-14.923c-0.403,0-0.731-0.329-0.731-0.732l0,0C347.392,223.008,347.72,222.678,348.123,222.678
				z"/>
			<path style="fill-rule:evenodd;clip-rule:evenodd;fill:#D84F50;" d="M369.145,222.678h-2.051c-0.402,0-0.731,0.33-0.731,0.732
				l0,0c0,0.403,0.329,0.732,0.731,0.732h2.051c0.403,0,0.732-0.329,0.732-0.732l0,0
				C369.878,223.008,369.549,222.678,369.145,222.678z"/>
			<path style="fill-rule:evenodd;clip-rule:evenodd;fill:#D84F50;" d="M380.365,222.678h-7.945c-0.402,0-0.732,0.33-0.732,0.732
				l0,0c0,0.403,0.33,0.732,0.732,0.732h7.945c0.402,0,0.732-0.329,0.732-0.732l0,0
				C381.098,223.008,380.768,222.678,380.365,222.678z"/>
			<path style="fill-rule:evenodd;clip-rule:evenodd;fill:#FFFFFF;" d="M368.109,177.198c0.932,0,1.691-0.76,1.691-1.693
				c0-0.931-0.76-1.692-1.691-1.692c-0.933,0-1.693,0.761-1.693,1.692C366.416,176.438,367.177,177.198,368.109,177.198z"/>
			<path style="fill-rule:evenodd;clip-rule:evenodd;fill:#FFFFFF;" d="M374.212,177.198c0.932,0,1.693-0.76,1.693-1.693
				c0-0.931-0.762-1.692-1.693-1.692c-0.933,0-1.692,0.761-1.692,1.692C372.52,176.438,373.279,177.198,374.212,177.198z"/>
			<path style="fill-rule:evenodd;clip-rule:evenodd;fill:#FFFFFF;" d="M380.314,177.198c0.933,0,1.693-0.76,1.693-1.693
				c0-0.931-0.761-1.692-1.693-1.692c-0.933,0-1.692,0.761-1.692,1.692C378.622,176.438,379.382,177.198,380.314,177.198z"/>
			<path style="fill-rule:evenodd;clip-rule:evenodd;fill:#FFFFFF;" d="M308.352,162.22c0.609,0,1.107-0.496,1.107-1.105
				c0-0.608-0.497-1.105-1.107-1.105c-0.608,0-1.105,0.497-1.105,1.105C307.247,161.725,307.744,162.22,308.352,162.22z"/>
		</g>
		<path style="fill-rule:evenodd;clip-rule:evenodd;fill:#FFFFFF;" d="M181.812,222.408c0.608,0,1.105-0.496,1.105-1.105
			c0-0.608-0.497-1.105-1.105-1.105c-0.609,0-1.106,0.497-1.106,1.105C180.706,221.912,181.203,222.408,181.812,222.408z"/>
		<path style="fill-rule:evenodd;clip-rule:evenodd;fill:#FFFFFF;" d="M324.426,273.722c0.608,0,1.105-0.496,1.105-1.105
			c0-0.607-0.497-1.105-1.105-1.105c-0.609,0-1.106,0.498-1.106,1.105C323.319,273.226,323.816,273.722,324.426,273.722z"/>
		<path style="fill-rule:evenodd;clip-rule:evenodd;fill:#FFFFFF;" d="M402.111,352.834c0.607,0,1.104-0.498,1.104-1.107
			c0-0.607-0.497-1.103-1.104-1.103c-0.61,0-1.107,0.495-1.107,1.103C401.004,352.336,401.501,352.834,402.111,352.834z"/>
		<path style="fill-rule:evenodd;clip-rule:evenodd;fill:#FFFFFF;" d="M109.188,368.514c0.608,0,1.105-0.498,1.105-1.104
			c0-0.61-0.497-1.105-1.105-1.105c-0.61,0-1.106,0.495-1.106,1.105C108.082,368.016,108.579,368.514,109.188,368.514z"/>
		<g>
			<path style="fill-rule:evenodd;clip-rule:evenodd;fill:#DA4346;" d="M201.357,269.59c0,0-4.967,2.336-10.498,8.8
				c-3.946,4.613-20.325,48.203-30.203,75.678c-2.443,6.799-12.01,30.508,7.015,43.977l4.097,3.669
				c6.304-13.079,22.066-47.862,22.066-47.862L201.357,269.59z"/>
			<path style="fill-rule:evenodd;clip-rule:evenodd;fill:#A62A34;" d="M201.357,269.59c0,0-4.967,2.336-10.498,8.8
				c-0.629,0.738-1.577,2.473-2.765,4.97c1.345,6.813,1.132,16.128-2.499,28.768c-11.009,38.33-5.947,59.112-0.947,61.295
				l0.223,0.095c4.858-10.606,8.961-19.666,8.961-19.666L201.357,269.59L201.357,269.59z M156.702,367.913
				c-0.28,11.197,8.975,20.829,19.87,23.61c-1.85,3.979-3.522,7.531-4.804,10.189l-4.097-3.669
				C155.979,389.765,155.087,377.623,156.702,367.913z"/>
			<path style="fill-rule:evenodd;clip-rule:evenodd;fill:#0C0E0E;" d="M294.898,199.809c0,0,1.301,23.217,9.658,38.124
				c0,0,2.707,3.558-0.088,6.843c-2.795,3.285-20.611,17.848-51.622,22.091c-31.012,4.245-61.274-20.983-62.067-24.29
				c-0.794-3.306,9.498-26.948,8.69-47.056L294.898,199.809z"/>
			<path style="fill-rule:evenodd;clip-rule:evenodd;" d="M294.898,199.807c0,0,0.712,12.683,4.456,25.321
				c-5.291,4.364-16.36,15.646-14.985,32.729c-8.175,3.751-18.724,7.259-31.522,9.01c-14.169,1.94-28.177-2.274-39.294-7.737
				c1.854-4.827,2.277-10.423-0.219-16.616c-4.745-11.776-12.055-16.957-17.66-19.236c2.176-8.441,4.169-18.475,3.796-27.757
				L294.898,199.807z"/>
			<path style="fill-rule:evenodd;clip-rule:evenodd;fill:#DA4346;" d="M299.131,269.59c0,0,4.965,2.336,10.497,8.8
				c3.946,4.613,20.324,48.203,30.202,75.678c2.444,6.799,12.01,30.508-7.014,43.977l-4.098,3.669
				c-6.305-13.079-22.066-47.862-22.066-47.862L299.131,269.59z"/>
			<path style="fill-rule:evenodd;clip-rule:evenodd;fill:#A62A34;" d="M299.131,269.59c0,0,4.965,2.336,10.497,8.8
				c0.675,0.791,1.713,2.721,3.021,5.513c-1.229,6.763-0.936,15.916,2.599,28.225c11.01,38.33,5.947,59.112,0.947,61.295
				l-0.52,0.223c-4.884-10.662-9.023-19.794-9.023-19.794L299.131,269.59L299.131,269.59z M344.085,369.998
				c-0.836,10.4-9.783,19.098-20.133,21.607c1.837,3.945,3.494,7.47,4.767,10.108l4.098-3.669
				C343.685,390.349,345.22,379.314,344.085,369.998z"/>
			<path style="fill-rule:evenodd;clip-rule:evenodd;fill:#DA4346;" d="M250.157,256.664c0,0,46.94,11.104,49.103,13.123
				c2.163,2.021,11.945,50.377,11.969,55.099c0.024,4.362-11.277,64.274-13.121,80.631h-95.899
				c-1.845-16.356-13.146-76.269-13.123-80.631c0.024-4.722,9.805-53.077,11.968-55.099
				C203.217,267.769,250.157,256.664,250.157,256.664z"/>
			<path style="fill-rule:evenodd;clip-rule:evenodd;fill:#A62A34;" d="M250.157,256.664c0,0,46.94,11.104,49.103,13.123
				c2.163,2.021,11.945,50.377,11.969,55.099c0.021,4.003-9.498,54.814-12.488,75.775c-34.079,2.035-53.595,17.489-35.647,12.327
				c17.947-5.161,16.036-39.421,16.036-47.069c0-7.65-18.269-23.744-7.84-31.191c10.43-7.45,23.521-46.61,19.956-51.064
				c-3.564-4.454-36.349-19.777-36.349-19.777s-10.419,3.449-10.216-5.911C248.036,257.165,250.157,256.664,250.157,256.664z"/>
			<path style="fill-rule:evenodd;clip-rule:evenodd;fill:#FFFFFF;" d="M250.157,256.664c0,0,13.107,2.981,26.053,6.136
				c-2.246,12.116-12.839,21.403-25.609,21.567l-0.319,0.006c-12.99,0.167-23.95-9.193-26.244-21.559
				C237.007,259.653,250.157,256.664,250.157,256.664z"/>
			<path style="fill-rule:evenodd;clip-rule:evenodd;fill:#E2ECF7;" d="M250.157,256.664c0,0,13.107,2.981,26.053,6.136
				c-0.647,3.488-1.988,6.742-3.871,9.613c-8.859-4.516-17.442-8.527-17.442-8.527s-10.419,3.449-10.216-5.911
				c0-0.02,0.008-0.036,0.01-0.053C248.049,257.146,250.157,256.664,250.157,256.664z"/>
			<path style="fill-rule:evenodd;clip-rule:evenodd;fill:#E8685B;" d="M249.54,221.503l0.32-0.003
				c9.231-0.108,16.872,7.358,16.979,16.59l0.229,19.721c0.105,9.23-7.359,16.871-16.591,16.977l-0.32,0.006
				c-9.23,0.105-16.872-7.361-16.978-16.593l-0.229-19.719C232.843,229.251,240.309,221.61,249.54,221.503z"/>
			<g>
				<path style="fill-rule:evenodd;clip-rule:evenodd;fill:#E8685B;" d="M212.965,207.027c-0.256,0.035-0.509,0.077-0.76,0.129
					l-0.007,0.003l0.001-0.001c-4.617,0.968-8.123,5.017-8.217,9.934c-0.107,5.714,4.438,10.436,10.152,10.544
					c5.714,0.107,10.436-4.438,10.544-10.151c0.064-3.322-1.445-6.307-3.842-8.246c0.263,3.056-0.221,6.838-4.122,7.216l0.113-5.968
					C216.874,208.073,214.622,206.96,212.965,207.027z"/>
				<path style="fill-rule:evenodd;clip-rule:evenodd;fill:#E8685B;" d="M287.662,207.027c0.256,0.035,0.508,0.077,0.758,0.129
					l0.009,0.003l-0.001-0.001c4.615,0.968,8.122,5.017,8.217,9.934c0.107,5.714-4.438,10.436-10.152,10.544
					c-5.716,0.107-10.438-4.438-10.544-10.151c-0.064-3.322,1.444-6.307,3.84-8.246c-0.263,3.056,0.223,6.838,4.123,7.216
					l-0.112-5.968C283.752,208.073,286.005,206.96,287.662,207.027z"/>
			</g>
			<path style="fill-rule:evenodd;clip-rule:evenodd;fill:#F4AD85;" d="M250.315,155.33L250.315,155.33
				c-19.489,0-35.436,15.944-35.436,35.434v32.229c0,19.488,15.947,35.434,35.436,35.434l0,0c19.485,0,35.433-15.945,35.433-35.434
				v-32.229C285.748,171.274,269.801,155.33,250.315,155.33z"/>
			<path style="fill-rule:evenodd;clip-rule:evenodd;fill:#F6BB98;" d="M243.834,216.781c-0.554-2.107-1.711-3.97-3.274-5.391
				l-14.807,16.551c1.575,1.388,3.545,2.338,5.721,2.656L243.834,216.781L243.834,216.781z M239.228,210.355l-14.653,16.379
				c-0.671-0.803-1.232-1.702-1.657-2.674l13.471-15.057C237.405,209.319,238.359,209.777,239.228,210.355z"/>
			<path style="fill-rule:evenodd;clip-rule:evenodd;fill:#F6BB98;" d="M273.771,209.626l-14.245,15.924
				c-0.589-0.927-1.043-1.946-1.337-3.032l12.42-13.884C271.726,208.808,272.789,209.146,273.771,209.626L273.771,209.626z
				 M279.113,215.23c-0.822-1.917-2.172-3.555-3.861-4.734l-14.698,16.43c1.351,1.541,3.121,2.705,5.133,3.313L279.113,215.23z"/>
			<path style="fill-rule:evenodd;clip-rule:evenodd;fill:#EF8871;" d="M259.084,257.32c15.281-3.931,26.664-17.863,26.664-34.328
				v-32.229c0-10.751-4.854-20.419-12.475-26.933c-23.27,2.454-47.639,4.562-47.639,4.562s-13.365,24.944-5.997,30.206l1.229-1.389
				c0,0,38.783,0,45.663,0c6.88,0,12.225,1.605,12.225,9.996c0,8.39,0,18.226,0,24.406
				C278.754,236.975,271.466,253.139,259.084,257.32z"/>
			<g>
				<path style="fill-rule:evenodd;clip-rule:evenodd;fill:#E8685B;" d="M270.403,224.746c-2.573-0.05-4.699,1.998-4.748,4.57
					c-0.049,2.572,1.998,4.698,4.57,4.748c2.572,0.047,4.699-1.999,4.748-4.571C275.022,226.92,272.975,224.794,270.403,224.746z"/>
				<path style="fill-rule:evenodd;clip-rule:evenodd;fill:#E8685B;" d="M230.324,223.983c-2.573-0.047-4.7,1.999-4.749,4.571
					c-0.048,2.573,1.998,4.698,4.57,4.747c2.574,0.05,4.699-1.996,4.75-4.57C234.942,226.159,232.896,224.034,230.324,223.983z"/>
			</g>
			<path style="fill-rule:evenodd;clip-rule:evenodd;" d="M228.319,205.643c2.66-1.33,6.124-1.615,8.746-0.04
				c0.542,0.324,1.258,0.144,1.583-0.397c0.323-0.541,0.142-1.258-0.398-1.581c-3.267-1.961-7.631-1.726-10.96-0.042
				c-0.566,0.287-0.799,0.978-0.515,1.545C227.058,205.697,227.751,205.926,228.319,205.643z"/>
			<path style="fill-rule:evenodd;clip-rule:evenodd;" d="M229.346,219.044c0-0.9,0.356-1.756,0.993-2.394
				c0.636-0.636,1.492-0.991,2.393-0.991c0.899,0,1.756,0.355,2.393,0.991c0.636,0.638,0.993,1.494,0.993,2.394
				c0,0.638,0.517,1.156,1.155,1.156c0.638,0,1.155-0.518,1.155-1.156c0-1.516-0.596-2.958-1.667-4.03
				c-1.072-1.07-2.514-1.667-4.028-1.667c-1.515,0-2.957,0.597-4.029,1.667c-1.07,1.072-1.669,2.514-1.669,4.03
				c0,0.638,0.518,1.156,1.155,1.156C228.829,220.2,229.346,219.682,229.346,219.044z"/>
			<path style="fill-rule:evenodd;clip-rule:evenodd;" d="M272.622,219.044c0,0.638,0.518,1.156,1.155,1.156
				c0.64,0,1.157-0.518,1.157-1.156c0-1.516-0.598-2.958-1.669-4.03c-1.07-1.07-2.514-1.667-4.028-1.667
				c-1.514,0-2.957,0.597-4.027,1.667c-1.072,1.072-1.67,2.514-1.67,4.03c0,0.638,0.518,1.156,1.156,1.156
				c0.638,0,1.155-0.518,1.155-1.156c0-0.9,0.356-1.756,0.992-2.394c0.637-0.636,1.493-0.991,2.394-0.991
				c0.9,0,1.758,0.355,2.394,0.991C272.268,217.288,272.622,218.144,272.622,219.044z"/>
			<path style="fill-rule:evenodd;clip-rule:evenodd;" d="M273.648,205.643c0.567,0.284,1.261,0.054,1.547-0.514
				c0.285-0.571,0.047-1.257-0.517-1.547c-3.3-1.692-7.721-1.903-10.961,0.042c-0.54,0.324-0.72,1.04-0.396,1.581
				c0.323,0.541,1.041,0.721,1.581,0.397C267.525,204.028,270.989,204.314,273.648,205.643z"/>
			<path style="fill-rule:evenodd;clip-rule:evenodd;fill:#D84F50;" d="M184.231,377.136l-1.813,1.729l25.88,13.806l-5.787,9.057
				h-29.506c0,0-6.734-2.996-6.2-6.095C167.341,392.531,173.755,375.212,184.231,377.136z"/>
			<path style="fill-rule:evenodd;clip-rule:evenodd;fill:#A62A34;" d="M198.387,387.384l9.913,5.287l-5.787,9.057h-29.506
				c0,0-6.734-2.996-6.2-6.095c0.187-1.083,1.091-3.903,2.636-7.032c5.487,3.18,12.066,4.568,18.33,3.216
				C192.922,390.705,196.245,389.074,198.387,387.384z"/>
			<path style="fill-rule:evenodd;clip-rule:evenodd;fill:#EF8871;" d="M219.207,392.033c0,0-4.975-3.33-7.655-4.936
				c-2.68-1.606-5.512-0.919-7.197,0.075c-1.684,0.996-9.11,6.987-10.259,8.201c-1.147,1.217,5.514,3.895,6.201,3.895
				C200.987,399.269,219.207,392.033,219.207,392.033z"/>
			<path style="fill-rule:evenodd;clip-rule:evenodd;fill:#D84F50;" d="M316.255,377.136l1.813,1.729l-25.88,13.806l5.786,9.057
				h29.506c0,0,6.736-2.996,6.202-6.095C333.146,392.531,326.732,375.212,316.255,377.136z"/>
			<path style="fill-rule:evenodd;clip-rule:evenodd;fill:#A62A34;" d="M302.315,387.27l-10.128,5.401l5.786,9.057h29.506
				c0,0,6.736-2.996,6.202-6.095c-0.184-1.066-1.063-3.809-2.559-6.871c-5.429,3.065-11.893,4.385-18.052,3.055
				C307.806,390.681,304.45,388.999,302.315,387.27z"/>
			<path style="fill-rule:evenodd;clip-rule:evenodd;fill:#EF8871;" d="M281.279,392.033c0,0,4.975-3.33,7.656-4.936
				c2.68-1.606,5.512-0.919,7.196,0.075c1.683,0.996,9.109,6.987,10.258,8.201c1.148,1.217-5.513,3.895-6.201,3.895
				C299.501,399.269,281.279,392.033,281.279,392.033z"/>
			<path style="fill-rule:evenodd;clip-rule:evenodd;fill:#0C0E0E;" d="M183.791,403.557h132.732c2.473,0,4.493-2.021,4.493-4.494
				l0,0c0-2.472-2.021-4.493-4.493-4.493H183.791c-2.472,0-4.493,2.021-4.493,4.493l0,0
				C179.298,401.532,181.319,403.557,183.791,403.557z"/>
			<path style="fill-rule:evenodd;clip-rule:evenodd;fill:#0C0E0E;" d="M282.019,207.523c0,0,0,2.369,0,4.567
				c0,2.199,2.042,4.653,3.729,4.653v-4.992c0,0,0.715-3.681,5.26-3.681c13.946-16.034,12.107-41.487-2.781-54.685
				c-14.888-13.196-46.863-14.042-52.446-12.18c-5.583,1.86-11.335,11.333-11.335,11.333s-4.737-4.23-9.136-2.031
				c-4.399,2.199-19.119,29.943-19.119,36.88c0,6.938,13.429,20.682,13.429,20.682c4.546,0,5.26,3.681,5.26,3.681v4.992
				c1.686,0,3.729-2.454,3.729-4.653c0-2.198,0-4.567,0-4.567s3.96-6.278,3.96-12.876h9.463c0.915,0,1.802-0.987,2.004-1.95
				c0.203-0.965,0.813-7.361,1.016-8.884c0.202-1.521,0.71-2.284,1.015-1.878c0.305,0.407,0.508,5.685,1.015,9.086
				c0.5,3.349,2.771,3.619,2.841,3.626h0.001h39.738C279.662,194.647,279.979,202.686,282.019,207.523z"/>
			<path style="fill-rule:evenodd;clip-rule:evenodd;fill:#252626;" d="M298.151,168.334c-1.824-5.129-4.696-9.836-8.561-13.668
				c-9.683,11.354-33.511,30.917-61.614-7.044c-0.561,0.685-1.072,1.352-1.521,1.964c3.436,7.868,10.304,19.432,22.869,26.645
				C267.05,186.405,289.708,182.04,298.151,168.334z"/>
			<path style="fill-rule:evenodd;clip-rule:evenodd;" d="M282.019,207.523c0,0,0,2.368,0,4.569c0,2.198,2.042,4.65,3.729,4.65
				v-4.99c0,0,0.715-3.681,5.26-3.681c8.658-9.954,11.23-23.54,8.376-35.568c-1.108,5.867-5.568,17.269-23.51,17.269
				c-24.151,0-38.44-12.693-39.91-14.03c-1.47-1.336-2.494,0.311-2.494,0.311s-8.239,12.538-22.451,8.731
				c-5.99-1.606-8.544-6.891-9.496-12.467c-3.043,6.364-5.332,12.336-5.332,15.071c0,6.936,13.429,20.682,13.429,20.682
				c4.546,0,5.26,3.681,5.26,3.681v4.99c1.686,0,3.729-2.453,3.729-4.65c0-2.201,0-4.569,0-4.569s3.962-6.278,3.962-12.876h9.461
				c0.915,0,1.802-0.985,2.004-1.95c0.203-0.965,0.813-7.361,1.016-8.884c0.202-1.523,0.71-2.284,1.015-1.878
				c0.305,0.405,0.508,5.685,1.015,9.086c0.5,3.348,2.771,3.619,2.841,3.626h0.001h39.738
				C279.662,194.647,279.979,202.686,282.019,207.523z"/>
			<g>
				<path style="fill-rule:evenodd;clip-rule:evenodd;" d="M260.741,233.592c-0.102,5.56-4.693,9.982-10.253,9.879
					c-5.56-0.103-9.982-4.694-9.88-10.253h0.018c0.018-0.957,0.814-1.725,1.77-1.706l16.623,0.309
					c0.955,0.018,1.724,0.814,1.705,1.771H260.741z"/>
				<path style="fill-rule:evenodd;clip-rule:evenodd;fill:#D64341;" d="M256.846,241.36c-1.753,1.363-3.966,2.156-6.357,2.112
					c-1.955-0.036-3.767-0.626-5.292-1.621c0.811-2.05,3.1-3.554,5.824-3.605C253.62,238.199,255.872,239.486,256.846,241.36z"/>
				<path style="fill-rule:evenodd;clip-rule:evenodd;fill:#FFFFFF;" d="M242.959,231.523l15.624,0.289
					c0.214,1.733-0.618,3.465-1.788,3.823c-1.422,0.434-12.723-0.07-13.505-0.975C242.912,234.223,242.884,232.838,242.959,231.523z
					"/>
			</g>
			<path style="fill-rule:evenodd;clip-rule:evenodd;fill:#F8CAAE;" d="M247.557,224.708c0,0-1.384,2.529-0.949,3.874
				c0.436,1.343,2.332,0.632,2.53-0.554c0.198-1.186-0.376-3.419-0.515-3.675C248.485,224.096,247.892,223.998,247.557,224.708z"/>
			<rect x="241.82" y="368.342" style="fill-rule:evenodd;clip-rule:evenodd;" width="18.255" height="28.257"/>
			<path style="fill-rule:evenodd;clip-rule:evenodd;fill:#0C0E0E;" d="M210.329,403.852h79.657c3.195,0,5.807-2.614,5.807-5.808
				l0,0c0-3.196-2.612-5.808-5.807-5.808h-79.657c-3.194,0-5.807,2.611-5.807,5.808l0,0
				C204.521,401.237,207.134,403.852,210.329,403.852z"/>
			<g>
				<g>
					<path style="fill-rule:evenodd;clip-rule:evenodd;fill:#222221;" d="M174.799,291.717h88.267V383.5h-76.677
						c-3.245,0-6.233-2.653-6.643-5.897l-10.102-79.987C169.235,294.37,171.555,291.717,174.799,291.717z"/>
					<path style="fill-rule:evenodd;clip-rule:evenodd;fill:#373736;" d="M174.799,291.717h88.267V383.5h-76.677
						c-3.245,0-6.233-2.653-6.643-5.897l-10.102-79.987C169.235,294.37,171.555,291.717,174.799,291.717z"/>
					<path style="fill-rule:evenodd;clip-rule:evenodd;fill:#222221;" d="M181.155,347.444h81.911v4.568h-81.335
						c-1.255,0-2.413-1.026-2.572-2.282l0,0C179,348.472,179.898,347.444,181.155,347.444z"/>
					<path style="fill-rule:evenodd;clip-rule:evenodd;fill:#222221;" d="M183.322,354.399h79.744v25.824h-76.482
						c-1.965,0-3.778-1.609-4.026-3.575l-2.358-18.675C179.951,356.008,181.357,354.399,183.322,354.399z"/>
					<path style="fill-rule:evenodd;clip-rule:evenodd;fill:#0C0E0E;" d="M187.838,310.319h19.47c1.203,0,2.31,0.983,2.461,2.186
						l3.563,28.211c0.151,1.202-0.706,2.186-1.91,2.186h-19.468c-1.203,0-2.309-0.983-2.462-2.186l-3.563-28.211
						C185.777,311.303,186.636,310.319,187.838,310.319z"/>
					<path style="fill-rule:evenodd;clip-rule:evenodd;fill:#222221;" d="M185.256,310.319h19.469c1.203,0,2.31,0.983,2.462,2.186
						l3.562,28.211c0.152,1.202-0.707,2.186-1.91,2.186h-19.47c-1.201,0-2.309-0.983-2.461-2.186l-3.562-28.211
						C183.194,311.303,184.053,310.319,185.256,310.319z"/>
					<path style="fill-rule:evenodd;clip-rule:evenodd;fill:#0C0E0E;" d="M188.874,326.609L188.874,326.609
						c0.642,0,1.23,0.525,1.311,1.166l1.236,9.789c0.081,0.642-0.376,1.163-1.018,1.163l0,0c-0.641,0-1.229-0.521-1.31-1.163
						l-1.236-9.789C187.777,327.135,188.233,326.609,188.874,326.609z"/>
					<path style="fill-rule:evenodd;clip-rule:evenodd;fill:#0C0E0E;" d="M194.372,326.609L194.372,326.609
						c0.641,0,1.23,0.525,1.311,1.166l1.236,9.789c0.081,0.642-0.377,1.163-1.017,1.163l0,0c-0.64,0-1.229-0.521-1.31-1.163
						l-1.236-9.789C193.275,327.135,193.732,326.609,194.372,326.609z"/>
					<path style="fill-rule:evenodd;clip-rule:evenodd;fill:#0C0E0E;" d="M199.871,326.609L199.871,326.609
						c0.642,0,1.23,0.525,1.312,1.166l1.236,9.789c0.081,0.642-0.376,1.163-1.018,1.163l0,0c-0.64,0-1.229-0.521-1.31-1.163
						l-1.236-9.789C198.772,327.135,199.23,326.609,199.871,326.609z"/>
					<path style="fill-rule:evenodd;clip-rule:evenodd;fill:#0C0E0E;" d="M205.369,326.609L205.369,326.609
						c0.64,0,1.23,0.525,1.311,1.166l1.236,9.789c0.081,0.642-0.377,1.163-1.018,1.163l0,0c-0.64,0-1.229-0.521-1.311-1.163
						l-1.236-9.789C204.271,327.135,204.729,326.609,205.369,326.609z"/>
					<path style="fill-rule:evenodd;clip-rule:evenodd;fill:#222221;" d="M175.008,298.769h88.058v4.569h-87.481
						c-1.257,0-2.415-1.027-2.574-2.286l0,0C172.853,299.796,173.751,298.769,175.008,298.769z"/>
					<path style="fill-rule:evenodd;clip-rule:evenodd;fill:#0C0E0E;" d="M184.23,356.481h78.836v1.787h-78.611
						c-0.491,0-0.945-0.4-1.006-0.894l0,0C183.387,356.885,183.737,356.481,184.23,356.481L184.23,356.481z M186.645,375.602h76.421
						v1.791h-76.196c-0.493,0-0.945-0.404-1.006-0.895l0,0C185.802,376.006,186.152,375.602,186.645,375.602L186.645,375.602z
						 M186.162,371.779h76.904v1.788h-76.679c-0.493,0-0.945-0.401-1.006-0.895l0,0
						C185.319,372.181,185.669,371.779,186.162,371.779L186.162,371.779z M185.679,367.954h77.387v1.788h-77.162
						c-0.492,0-0.945-0.401-1.008-0.895l0,0C184.835,368.358,185.186,367.954,185.679,367.954L185.679,367.954z M185.196,364.129
						h77.87v1.79h-77.645c-0.492,0-0.945-0.403-1.008-0.894l0,0C184.352,364.533,184.705,364.129,185.196,364.129L185.196,364.129z
						 M184.713,360.307h78.354v1.787h-78.128c-0.491,0-0.943-0.4-1.006-0.894l0,0C183.87,360.708,184.22,360.307,184.713,360.307z"
						/>
					<path style="fill-rule:evenodd;clip-rule:evenodd;fill:#222221;" d="M217.965,308.204h45.101v33.971h-40.811
						c-1.037,0-1.993-0.85-2.124-1.885l-3.814-30.201C216.186,309.051,216.927,308.204,217.965,308.204z"/>
					<path style="fill-rule:evenodd;clip-rule:evenodd;fill:#FFFFFF;" d="M221.2,312.575h27.019c0.547,0,1.048,0.445,1.119,0.993
						l0,0c0.068,0.546-0.322,0.991-0.869,0.991h-27.019c-0.547,0-1.05-0.445-1.12-0.991l0,0
						C220.262,313.021,220.653,312.575,221.2,312.575z"/>
					<path style="fill-rule:evenodd;clip-rule:evenodd;fill:#0C0E0E;" d="M221.827,317.542h41.24v1.987h-40.988
						c-0.547,0-1.051-0.448-1.119-0.994h-0.001C220.892,317.987,221.28,317.542,221.827,317.542z"/>
					<path style="fill-rule:evenodd;clip-rule:evenodd;fill:#0C0E0E;" d="M222.467,322.608h40.599v1.985h-40.349
						c-0.547,0-1.05-0.445-1.118-0.991V323.6C221.53,323.054,221.92,322.608,222.467,322.608z"/>
					<path style="fill-rule:evenodd;clip-rule:evenodd;fill:#0C0E0E;" d="M223.107,327.673h39.959v1.987h-39.709
						c-0.547,0-1.049-0.445-1.119-0.994l0,0C222.17,328.121,222.559,327.673,223.107,327.673z"/>
					<path style="fill-rule:evenodd;clip-rule:evenodd;fill:#0C0E0E;" d="M223.746,332.739h39.32v1.988h-39.068
						c-0.547,0-1.051-0.448-1.119-0.994l0,0C222.81,333.185,223.199,332.739,223.746,332.739z"/>
					<path style="fill-rule:evenodd;clip-rule:evenodd;fill:#0C0E0E;" d="M224.387,337.807h38.68v1.984h-38.429
						c-0.547,0-1.049-0.445-1.119-0.991v-0.002C223.448,338.252,223.84,337.807,224.387,337.807z"/>
				</g>
				<g>
					<path style="fill-rule:evenodd;clip-rule:evenodd;fill:#DEDEDE;" d="M311.82,364.959c0,0,1.98-3.238,4.748-3.377
						c2.767-0.14,2.68,3.229,1.742,3.642C317.375,365.636,311.82,364.959,311.82,364.959z"/>
					<path style="fill-rule:evenodd;clip-rule:evenodd;fill:#DEDEDE;" d="M312.263,370.713l-0.69-0.152c-0.003,0-0.006,0-0.01,0
						l-2.349-0.52c0.255,8.273,9.074,7.085,7.882,0.712l-3.87-0.855l-0.145,0.423c-0.099,0.296-0.413,0.482-0.699,0.421
						L312.263,370.713z"/>
					<path style="fill-rule:evenodd;clip-rule:evenodd;fill:#222221;" d="M260.86,291.717h66.231c3.244,0,5.566,2.653,5.158,5.899
						l-10.014,79.987c-0.406,3.243-3.393,5.897-6.637,5.897H260.86V291.717z"/>
					<path style="fill-rule:evenodd;clip-rule:evenodd;fill:#373736;" d="M260.86,291.717h62.358c3.244,0,5.565,2.653,5.159,5.899
						l-10.016,79.987c-0.406,3.243-3.393,5.897-6.637,5.897H260.86V291.717z"/>
					<path style="fill-rule:evenodd;clip-rule:evenodd;fill:#222221;" d="M260.86,347.444h55.17c1.256,0,2.156,1.027,1.999,2.286
						l0,0c-0.157,1.256-1.314,2.282-2.57,2.282H260.86V347.444z"/>
					<path style="fill-rule:evenodd;clip-rule:evenodd;fill:#222221;" d="M260.86,354.399h53.009c1.967,0,3.373,1.608,3.128,3.574
						l-2.338,18.675c-0.247,1.966-2.057,3.575-4.022,3.575H260.86V354.399z"/>
					<path style="fill-rule:evenodd;clip-rule:evenodd;fill:#222221;" d="M260.86,298.769h61.265c1.257,0,2.156,1.027,1.997,2.283
						l0,0c-0.155,1.259-1.314,2.286-2.569,2.286H260.86V298.769z"/>
					<path style="fill-rule:evenodd;clip-rule:evenodd;fill:#0C0E0E;" d="M260.86,356.481h52.105c0.491,0,0.843,0.403,0.782,0.894
						l0,0c-0.061,0.493-0.516,0.894-1.007,0.894H260.86V356.481L260.86,356.481z M260.86,375.602h49.711
						c0.493,0,0.844,0.404,0.782,0.896l0,0c-0.063,0.49-0.515,0.895-1.006,0.895H260.86V375.602L260.86,375.602z M260.86,371.779
						h50.189c0.491,0,0.844,0.401,0.782,0.894l0,0c-0.063,0.493-0.515,0.895-1.006,0.895H260.86V371.779L260.86,371.779z
						 M260.86,367.954h50.669c0.491,0,0.843,0.404,0.782,0.894l0,0c-0.061,0.493-0.516,0.895-1.007,0.895H260.86V367.954
						L260.86,367.954z M260.86,364.129h51.147c0.491,0,0.844,0.404,0.782,0.896l0,0c-0.063,0.49-0.514,0.894-1.007,0.894H260.86
						V364.129L260.86,364.129z M260.86,360.307h51.626c0.492,0,0.844,0.401,0.782,0.894l0,0c-0.061,0.493-0.514,0.894-1.006,0.894
						H260.86V360.307z"/>
					<path style="fill-rule:evenodd;clip-rule:evenodd;fill:#0C0E0E;" d="M309.682,324.624h2.016c0.729,0,1.252,0.596,1.161,1.325
						l-0.73,5.838c-0.093,0.729-0.764,1.325-1.492,1.325h-2.017c-0.729,0-1.251-0.596-1.159-1.325l0.73-5.838
						C308.28,325.22,308.952,324.624,309.682,324.624z"/>
					<path style="fill-rule:evenodd;clip-rule:evenodd;fill:#222221;" d="M310.372,312.079h3.776c1.366,0,2.343,1.116,2.173,2.483
						l-1.369,10.928c-0.17,1.364-1.429,2.483-2.794,2.483h-3.775c-1.365,0-2.343-1.119-2.173-2.483l1.37-10.928
						C307.75,313.195,309.007,312.079,310.372,312.079z"/>
					<path style="fill-rule:evenodd;clip-rule:evenodd;fill:#222221;" d="M260.86,308.204h37.385c1.038,0,1.78,0.847,1.649,1.885
						l-3.78,30.201c-0.13,1.035-1.085,1.885-2.122,1.885H260.86V308.204z"/>
					<path style="fill-rule:evenodd;clip-rule:evenodd;fill:#0C0E0E;" d="M260.86,317.542h31.247c0.547,0,0.939,0.445,0.869,0.993
						l0,0c-0.068,0.546-0.571,0.994-1.116,0.994h-31V317.542z"/>
					<path style="fill-rule:evenodd;clip-rule:evenodd;fill:#0C0E0E;" d="M260.86,322.608h30.614c0.545,0,0.936,0.445,0.867,0.991
						v0.003c-0.067,0.546-0.571,0.991-1.118,0.991H260.86V322.608z"/>
					<path style="fill-rule:evenodd;clip-rule:evenodd;fill:#0C0E0E;" d="M260.86,327.673h29.979c0.547,0,0.937,0.448,0.868,0.993
						l0,0c-0.068,0.549-0.57,0.994-1.116,0.994H260.86V327.673z"/>
					<path style="fill-rule:evenodd;clip-rule:evenodd;fill:#0C0E0E;" d="M260.86,332.739h29.345c0.547,0,0.937,0.445,0.868,0.994
						l0,0c-0.068,0.546-0.57,0.994-1.116,0.994H260.86V332.739z"/>
					<path style="fill-rule:evenodd;clip-rule:evenodd;fill:#0C0E0E;" d="M260.86,337.807h28.711c0.546,0,0.936,0.445,0.867,0.991
						v0.002c-0.066,0.546-0.569,0.991-1.116,0.991H260.86V337.807z"/>
					<path style="fill-rule:evenodd;clip-rule:evenodd;fill:#373736;" d="M292.729,312.575h-10.603c-0.548,0-1.05,0.445-1.118,0.993
						l0,0c-0.068,0.546,0.321,0.991,0.869,0.991h10.603c0.547,0,1.05-0.445,1.118-0.991l0,0
						C293.667,313.021,293.277,312.575,292.729,312.575z"/>
				</g>
				<path style="fill-rule:evenodd;clip-rule:evenodd;fill:#373736;" d="M278.62,312.575h-25.125c-0.547,0-1.05,0.445-1.118,0.993
					l0,0c-0.068,0.546,0.321,0.991,0.869,0.991h25.124c0.547,0,1.05-0.445,1.118-0.991l0,0
					C279.556,313.021,279.166,312.575,278.62,312.575z"/>
			</g>
			<path style="fill-rule:evenodd;clip-rule:evenodd;fill:#FFFFFF;" d="M155.121,280.528c0.609,0,1.107-0.496,1.107-1.105
				c0-0.607-0.497-1.105-1.107-1.105c-0.608,0-1.105,0.499-1.105,1.105C154.015,280.032,154.512,280.528,155.121,280.528z"/>
			<path style="fill-rule:evenodd;clip-rule:evenodd;fill:#FFFFFF;" d="M159.005,329.106c0.608,0,1.105-0.604,1.105-1.342
				c0-0.741-0.497-1.345-1.105-1.345c-0.609,0-1.105,0.604-1.105,1.345C157.9,328.502,158.396,329.106,159.005,329.106z"/>
			<path style="fill-rule:evenodd;clip-rule:evenodd;" d="M233.085,207.336c3.349,0,6.382,1.359,8.576,3.552
				c1.619,1.619,2.784,3.697,3.282,6.02c2.166-0.505,7.152-1.354,12.22-0.018c0.5-2.316,1.662-4.386,3.278-6.002
				c2.193-2.193,5.227-3.552,8.576-3.552c3.35,0,6.382,1.359,8.576,3.552c1.024,1.025,1.866,2.231,2.474,3.569l4.701-3.421
				c0.447-0.327,1.077-0.227,1.404,0.221c0.327,0.448,0.228,1.077-0.222,1.404l-5.186,3.775c0.249,0.967,0.382,1.982,0.382,3.027
				c0,3.35-1.357,6.382-3.553,8.576c-2.194,2.194-5.227,3.553-8.576,3.553c-3.35,0-6.383-1.359-8.576-3.553
				c-2.193-2.194-3.553-5.227-3.553-8.576c0-0.186,0.005-0.371,0.013-0.555c-4.941-1.386-9.855-0.45-11.701,0.004
				c0.008,0.184,0.013,0.366,0.013,0.551c0,3.35-1.358,6.382-3.552,8.576c-2.194,2.194-5.227,3.553-8.576,3.553
				c-3.349,0-6.382-1.359-8.576-3.553c-2.194-2.194-3.553-5.227-3.553-8.576c0-1.064,0.138-2.096,0.394-3.079l-5.114-3.724
				c-0.448-0.327-0.548-0.956-0.22-1.404c0.326-0.448,0.955-0.548,1.404-0.221l4.637,3.374c0.604-1.318,1.438-2.51,2.452-3.522
				C226.703,208.695,229.736,207.336,233.085,207.336L233.085,207.336z M276.166,212.317c-1.829-1.829-4.356-2.96-7.147-2.96
				c-2.791,0-5.319,1.131-7.148,2.96c-1.827,1.829-2.96,4.357-2.96,7.148c0,2.791,1.133,5.319,2.96,7.148
				c1.829,1.828,4.357,2.961,7.148,2.961c2.791,0,5.318-1.133,7.147-2.961c1.829-1.829,2.961-4.357,2.961-7.148
				C279.127,216.674,277.995,214.146,276.166,212.317L276.166,212.317z M240.233,212.317c-1.829-1.829-4.357-2.96-7.148-2.96
				c-2.791,0-5.319,1.131-7.148,2.96s-2.961,4.357-2.961,7.148c0,2.791,1.132,5.319,2.961,7.148
				c1.829,1.828,4.357,2.961,7.148,2.961c2.791,0,5.319-1.133,7.148-2.961c1.829-1.829,2.96-4.357,2.96-7.148
				C243.194,216.674,242.063,214.146,240.233,212.317z"/>
		</g>
		<path style="fill-rule:evenodd;clip-rule:evenodd;fill:#9CC6E0;" d="M223.469,134.751L223.469,134.751L223.469,134.751z
			 M220.72,124.28c-0.958-0.957-2.28-1.549-3.74-1.549c-1.46,0-2.783,0.593-3.741,1.549c-0.958,0.957-1.549,2.28-1.549,3.742
			c0,1.46,0.591,2.783,1.549,3.739c0.958,0.958,2.28,1.551,3.741,1.551c1.46,0,2.782-0.593,3.74-1.551
			c0.957-0.956,1.549-2.279,1.549-3.739C222.27,126.56,221.678,125.237,220.72,124.28L220.72,124.28z M219.577,119.038
			c0.733,0.211,1.428,0.509,2.073,0.882c0.663,0.383,1.273,0.844,1.819,1.371c0.106,0.103,0.266,0.118,0.387,0.047l2.458-1.42
			l0.014-0.007c0.141-0.078,0.301-0.092,0.448-0.051c0.15,0.04,0.287,0.138,0.37,0.282l0.01,0.017l1.729,2.996
			c0.083,0.145,0.1,0.311,0.06,0.462c-0.04,0.152-0.138,0.287-0.282,0.37l-0.017,0.01l-2.437,1.407
			c-0.13,0.075-0.188,0.223-0.155,0.359l0,0c0.09,0.362,0.159,0.735,0.205,1.116c0.046,0.373,0.07,0.754,0.07,1.142
			c0,0.387-0.024,0.767-0.07,1.139c-0.046,0.381-0.114,0.754-0.205,1.118c-0.038,0.15,0.038,0.302,0.171,0.369l2.438,1.406v0.001
			c0.144,0.083,0.242,0.218,0.282,0.37c0.04,0.152,0.024,0.319-0.06,0.462l-1.739,3.012l0,0c-0.084,0.145-0.22,0.242-0.37,0.282
			c-0.152,0.04-0.317,0.024-0.462-0.06l-0.018-0.01l-2.44-1.409c-0.128-0.072-0.286-0.05-0.387,0.047
			c-0.547,0.526-1.157,0.988-1.818,1.37c-0.65,0.376-1.35,0.677-2.088,0.888c-0.142,0.04-0.235,0.17-0.237,0.311v2.836
			c0,0.167-0.068,0.318-0.178,0.429c-0.111,0.11-0.263,0.179-0.429,0.179h-3.48c-0.167,0-0.319-0.069-0.429-0.179
			c-0.111-0.11-0.18-0.262-0.18-0.429v-2.836c0-0.153-0.107-0.282-0.249-0.316c-0.733-0.211-1.428-0.511-2.074-0.882
			c-0.661-0.383-1.272-0.845-1.818-1.371c-0.111-0.109-0.28-0.12-0.404-0.038l-2.441,1.41c-0.145,0.083-0.311,0.099-0.462,0.058
			c-0.15-0.04-0.287-0.138-0.371-0.282l-0.01-0.017l-1.73-2.997l0,0c-0.083-0.144-0.099-0.311-0.059-0.461
			c0.04-0.152,0.138-0.288,0.281-0.37l2.456-1.419c0.128-0.074,0.186-0.222,0.153-0.358h0.001c-0.09-0.363-0.159-0.736-0.206-1.118
			c-0.044-0.372-0.068-0.752-0.068-1.139c0-0.388,0.024-0.769,0.068-1.142c0.047-0.381,0.116-0.754,0.206-1.116
			c0.036-0.15-0.038-0.304-0.171-0.369l-2.439-1.407c-0.143-0.083-0.241-0.218-0.281-0.37c-0.041-0.152-0.024-0.317,0.059-0.462
			l0.01-0.017l1.73-2.996l0,0c0.083-0.145,0.22-0.242,0.371-0.282c0.151-0.041,0.317-0.024,0.462,0.058l0,0l2.457,1.42
			c0.132,0.075,0.293,0.05,0.395-0.054c0.544-0.524,1.153-0.983,1.811-1.364c0.65-0.376,1.349-0.675,2.087-0.887
			c0.143-0.041,0.236-0.171,0.236-0.312v-2.836c0-0.167,0.068-0.318,0.18-0.429c0.11-0.111,0.262-0.179,0.429-0.179h3.48
			c0.166,0,0.317,0.068,0.429,0.179c0.11,0.11,0.178,0.262,0.178,0.429v2.836C219.327,118.874,219.434,119.004,219.577,119.038z"/>
		<path style="fill-rule:evenodd;clip-rule:evenodd;fill:#9CC6E0;" d="M178.304,143.116c-1.054-1.052-2.315-1.903-3.719-2.484
			c-1.352-0.56-2.83-0.869-4.378-0.869c-1.546,0-3.025,0.309-4.376,0.869c-1.404,0.582-2.666,1.432-3.719,2.484
			c-1.054,1.054-1.903,2.315-2.485,3.72c-0.56,1.352-0.869,2.83-0.869,4.376c0,1.548,0.309,3.026,0.869,4.376
			c0.582,1.404,1.431,2.667,2.485,3.719c1.054,1.054,2.313,1.904,3.718,2.485c1.351,0.561,2.83,0.87,4.378,0.87
			c1.548,0,3.026-0.309,4.378-0.869c1.403-0.582,2.665-1.433,3.719-2.486c1.052-1.052,1.903-2.315,2.485-3.719
			c0.558-1.351,0.869-2.829,0.869-4.376c0-1.547-0.311-3.026-0.869-4.376C180.207,145.431,179.356,144.17,178.304,143.116
			L178.304,143.116z M174.183,141.609c1.267,0.525,2.411,1.297,3.37,2.258c0.961,0.96,1.733,2.103,2.258,3.372
			c0.507,1.222,0.787,2.564,0.787,3.974c0,1.411-0.28,2.753-0.787,3.976c-0.525,1.267-1.297,2.411-2.258,3.37
			c-0.959,0.961-2.104,1.733-3.37,2.258c-1.222,0.507-2.565,0.787-3.976,0.787c-1.409,0-2.751-0.28-3.971-0.787
			c-1.27-0.524-2.414-1.297-3.374-2.258c-0.96-0.959-1.733-2.103-2.258-3.37c-0.505-1.222-0.785-2.565-0.785-3.976
			s0.28-2.752,0.785-3.974c0.525-1.269,1.297-2.411,2.258-3.372c0.96-0.96,2.105-1.733,3.372-2.256
			c1.222-0.507,2.564-0.787,3.974-0.787C171.617,140.824,172.96,141.104,174.183,141.609L174.183,141.609z M175.448,133.185
			c0.717,0.207,1.421,0.458,2.11,0.751c0.699,0.298,1.376,0.636,2.025,1.012c0.663,0.383,1.3,0.806,1.91,1.267
			c0.614,0.462,1.195,0.959,1.744,1.487c0.195,0.188,0.437,0.296,0.685,0.327c0.255,0.032,0.518-0.021,0.747-0.153
			c1.68-0.97,3.448-1.931,5.096-2.943c0.08-0.042,0.163-0.067,0.247-0.077c0.096-0.009,0.19-0.003,0.281,0.022
			c0.093,0.025,0.183,0.067,0.258,0.126c0.074,0.056,0.138,0.126,0.186,0.211c1.225,1.854,2.456,4.25,3.591,6.217
			c0.047,0.085,0.078,0.174,0.089,0.264c0.011,0.095,0.004,0.194-0.021,0.289c-0.025,0.093-0.068,0.181-0.127,0.258
			c-0.056,0.074-0.126,0.136-0.211,0.185c-1.512,1.001-3.46,2.002-5.064,2.927c-0.235,0.135-0.408,0.337-0.505,0.567
			c-0.034,0.081-0.06,0.164-0.075,0.25l-0.105,0.033l0.117,0.473c0.092,0.372,0.173,0.744,0.241,1.114
			c0.065,0.359,0.122,0.735,0.171,1.129c0.046,0.383,0.081,0.763,0.103,1.139c0.023,0.366,0.034,0.751,0.034,1.151
			c0,0.401-0.011,0.785-0.034,1.149c-0.022,0.376-0.057,0.757-0.103,1.142c-0.048,0.391-0.105,0.769-0.172,1.128
			c-0.068,0.371-0.147,0.744-0.24,1.115c-0.068,0.275-0.035,0.551,0.075,0.789c0.11,0.238,0.298,0.437,0.542,0.563l4.487,2.589
			l-0.003,0.003l0.532,0.306c0.085,0.05,0.156,0.114,0.211,0.186c0.059,0.075,0.102,0.165,0.127,0.258
			c0.025,0.096,0.032,0.195,0.021,0.29c-0.011,0.089-0.042,0.18-0.089,0.263l-3.321,5.754l-0.001-0.001l-0.269,0.465
			c-0.049,0.085-0.113,0.155-0.186,0.21c-0.075,0.058-0.165,0.102-0.258,0.126c-0.094,0.025-0.193,0.034-0.288,0.021
			c-0.089-0.011-0.178-0.041-0.262-0.089c-1.607-1.009-3.42-1.972-5.077-2.93c-0.238-0.135-0.495-0.181-0.742-0.151
			c-0.253,0.03-0.496,0.142-0.686,0.324l-0.001,0.001c-0.549,0.529-1.132,1.027-1.744,1.489c-0.611,0.46-1.249,0.883-1.909,1.264
			c-0.656,0.378-1.337,0.72-2.041,1.019c-0.69,0.293-1.409,0.548-2.148,0.76c-0.26,0.074-0.476,0.23-0.628,0.43
			c-0.154,0.205-0.242,0.458-0.242,0.725l-0.003,5.852c0,0.098-0.019,0.192-0.054,0.276c-0.036,0.086-0.09,0.167-0.16,0.235
			c-0.066,0.068-0.148,0.123-0.235,0.16c-0.083,0.035-0.177,0.054-0.276,0.054h-7.181c-0.099,0-0.192-0.019-0.276-0.054
			c-0.089-0.038-0.169-0.092-0.236-0.159c-0.068-0.069-0.124-0.15-0.159-0.236c-0.036-0.084-0.056-0.178-0.056-0.276v-5.854
			c0-0.278-0.096-0.536-0.259-0.742c-0.167-0.21-0.399-0.363-0.664-0.426c-0.717-0.206-1.421-0.46-2.11-0.752
			c-0.699-0.298-1.377-0.638-2.027-1.013c-0.661-0.381-1.299-0.805-1.909-1.264c-0.614-0.463-1.197-0.96-1.744-1.489
			c-0.205-0.195-0.459-0.305-0.722-0.329c-0.268-0.025-0.54,0.041-0.77,0.192l-5.011,2.893c-0.082,0.049-0.174,0.078-0.264,0.089
			c-0.095,0.013-0.194,0.004-0.29-0.021c-0.093-0.025-0.181-0.068-0.258-0.126c-0.072-0.056-0.136-0.126-0.185-0.21
			c-1.19-2.075-2.4-4.143-3.591-6.218c-0.049-0.084-0.078-0.174-0.089-0.265c-0.012-0.095-0.004-0.193,0.021-0.289
			c0.025-0.093,0.068-0.183,0.126-0.257c0.056-0.074,0.125-0.138,0.207-0.186l5.069-2.926c0.234-0.135,0.407-0.337,0.505-0.566
			c0.026-0.063,0.047-0.127,0.063-0.194l0.132-0.026l-0.132-0.537c-0.092-0.372-0.172-0.743-0.241-1.112
			c-0.065-0.36-0.124-0.738-0.171-1.13c-0.046-0.384-0.083-0.764-0.104-1.14c-0.021-0.366-0.034-0.75-0.034-1.151
			c0-0.4,0.013-0.784,0.034-1.15c0.022-0.376,0.058-0.756,0.104-1.139c0.048-0.398,0.105-0.777,0.171-1.133
			c0.068-0.369,0.149-0.74,0.241-1.111c0.068-0.277,0.035-0.554-0.076-0.792c-0.111-0.236-0.299-0.437-0.539-0.561l-5.021-2.898
			c-0.082-0.046-0.153-0.11-0.208-0.184c-0.057-0.074-0.1-0.163-0.126-0.259c-0.025-0.096-0.033-0.193-0.021-0.288
			c0.011-0.09,0.04-0.181,0.089-0.264c1.226-1.824,2.454-4.258,3.591-6.218c0.049-0.085,0.113-0.156,0.185-0.211
			c0.077-0.059,0.165-0.101,0.258-0.126c0.096-0.026,0.195-0.033,0.29-0.022c0.087,0.011,0.178,0.042,0.264,0.091l5.073,2.927
			c0.238,0.141,0.505,0.187,0.76,0.153c0.255-0.036,0.497-0.153,0.685-0.34c0.551-0.53,1.132-1.024,1.737-1.481
			c0.602-0.454,1.237-0.874,1.903-1.258c0.653-0.377,1.335-0.718,2.039-1.018c0.692-0.294,1.409-0.549,2.146-0.76
			c0.26-0.074,0.478-0.229,0.629-0.432c0.154-0.203,0.242-0.458,0.242-0.724l0.001-5.854c0-0.097,0.02-0.19,0.054-0.274
			c0.036-0.086,0.092-0.167,0.16-0.235c0.067-0.07,0.147-0.124,0.236-0.16c0.083-0.035,0.177-0.054,0.276-0.054h7.181
			c0.099,0,0.192,0.019,0.276,0.054c0.087,0.036,0.169,0.09,0.236,0.159c0.131,0.132,0.213,0.313,0.213,0.511v5.854
			c0,0.28,0.098,0.539,0.259,0.743C174.95,132.969,175.182,133.122,175.448,133.185L175.448,133.185z M177.973,132.963
			c0.738,0.313,1.453,0.672,2.142,1.071c0.702,0.405,1.376,0.852,2.017,1.335c0.642,0.484,1.257,1.01,1.839,1.571
			c0.023,0.021,0.05,0.034,0.081,0.038c0.031,0.003,0.062-0.003,0.088-0.017c1.705-0.985,3.413-1.965,5.116-2.955
			c0.202-0.11,0.419-0.177,0.64-0.202c0.227-0.025,0.455-0.007,0.672,0.052c0.224,0.059,0.437,0.163,0.626,0.308
			c0.181,0.138,0.338,0.313,0.458,0.522c1.236,2.001,2.41,4.17,3.591,6.217c0.121,0.208,0.193,0.433,0.223,0.661
			c0.029,0.236,0.013,0.473-0.046,0.696c-0.06,0.226-0.164,0.438-0.309,0.626c-0.138,0.181-0.313,0.34-0.522,0.459
			c-1.63,1.008-3.4,1.962-5.068,2.926c-0.026,0.016-0.046,0.039-0.058,0.067c-0.011,0.028-0.014,0.06-0.007,0.089l0.117,0.473
			l-0.007,0.001c0.05,0.23,0.098,0.463,0.142,0.701c0.074,0.405,0.135,0.805,0.183,1.196c0.047,0.387,0.084,0.788,0.108,1.2
			c0.025,0.415,0.038,0.82,0.038,1.214c0,0.395-0.013,0.799-0.038,1.212c-0.025,0.412-0.061,0.814-0.108,1.203
			c-0.047,0.391-0.11,0.789-0.183,1.194c-0.075,0.404-0.16,0.796-0.253,1.176c-0.008,0.032-0.004,0.064,0.01,0.092
			c0.014,0.031,0.036,0.056,0.063,0.068c1.862,0.995,3.752,2.166,5.594,3.229l-0.065,0.082l0.056,0.069
			c0.145,0.189,0.249,0.402,0.309,0.626c0.059,0.223,0.075,0.46,0.046,0.696c-0.029,0.228-0.102,0.454-0.223,0.661l-3.859,6.683
			l-0.072-0.044c-0.038,0.035-0.078,0.068-0.118,0.1c-0.189,0.144-0.402,0.248-0.626,0.308c-0.223,0.06-0.46,0.077-0.695,0.046
			c-0.221-0.028-0.441-0.099-0.643-0.212c-1.689-0.895-3.425-1.978-5.093-2.941c-0.025-0.012-0.054-0.017-0.085-0.014
			c-0.03,0.004-0.06,0.017-0.082,0.038c-0.582,0.561-1.197,1.086-1.839,1.57c-0.642,0.483-1.314,0.928-2.016,1.335
			c-0.693,0.401-1.414,0.76-2.156,1.076c-0.738,0.313-1.498,0.583-2.271,0.806c-0.031,0.008-0.057,0.026-0.074,0.05
			c-0.02,0.025-0.031,0.056-0.029,0.086v5.852c0,0.239-0.049,0.471-0.137,0.681c-0.092,0.22-0.224,0.417-0.39,0.58
			c-0.164,0.164-0.362,0.298-0.579,0.387c-0.211,0.089-0.441,0.138-0.681,0.138h-7.181c-0.24,0-0.471-0.049-0.682-0.138
			c-0.217-0.089-0.414-0.223-0.581-0.387c-0.163-0.163-0.295-0.36-0.387-0.58c-0.088-0.21-0.138-0.441-0.138-0.681v-5.854
			c0-0.035-0.01-0.065-0.028-0.087c-0.018-0.024-0.046-0.042-0.079-0.049l-0.023-0.008c-0.779-0.226-1.533-0.494-2.258-0.802
			c-0.738-0.314-1.453-0.672-2.142-1.07c-0.702-0.407-1.376-0.852-2.016-1.336c-0.645-0.484-1.258-1.009-1.84-1.57
			c-0.025-0.023-0.054-0.036-0.083-0.039c-0.031-0.002-0.064,0.004-0.09,0.022l-5.07,2.926c-0.208,0.12-0.432,0.194-0.659,0.222
			c-0.235,0.03-0.472,0.014-0.694-0.046c-0.224-0.06-0.439-0.164-0.627-0.308c-0.177-0.135-0.332-0.306-0.451-0.508
			c-1.332-2.141-2.589-4.486-3.86-6.685l0.068-0.042c-0.013-0.056-0.022-0.111-0.029-0.168c-0.031-0.235-0.014-0.472,0.046-0.695
			c0.06-0.224,0.164-0.438,0.309-0.626c0.138-0.181,0.313-0.338,0.52-0.459l5.07-2.926c0.025-0.014,0.046-0.039,0.057-0.065
			c0.012-0.029,0.015-0.061,0.008-0.092l-0.132-0.536l0.008-0.001c-0.046-0.209-0.088-0.42-0.127-0.636
			c-0.075-0.405-0.136-0.805-0.185-1.196c-0.046-0.388-0.083-0.79-0.107-1.203c-0.025-0.414-0.039-0.817-0.039-1.212
			c0-0.394,0.014-0.799,0.039-1.211c0.023-0.413,0.061-0.816,0.107-1.205c0.047-0.389,0.109-0.787,0.185-1.196
			c0.073-0.402,0.158-0.794,0.252-1.173c0.007-0.031,0.003-0.063-0.009-0.093c-0.014-0.028-0.037-0.052-0.065-0.067l-5.063-2.923
			c-0.21-0.121-0.384-0.277-0.52-0.458c-0.145-0.191-0.248-0.404-0.308-0.626c-0.06-0.221-0.077-0.458-0.046-0.693
			c0.028-0.223,0.099-0.441,0.214-0.645c1.206-2.236,2.589-4.489,3.866-6.701l0.072,0.044c0.039-0.036,0.078-0.07,0.12-0.1
			c0.188-0.145,0.402-0.248,0.627-0.308c0.223-0.06,0.459-0.077,0.694-0.047c0.228,0.029,0.454,0.102,0.659,0.218l0.374,0.216
			l-0.001,0.004l4.702,2.714c0.028,0.015,0.061,0.021,0.09,0.017c0.031-0.003,0.059-0.018,0.081-0.039l0.011-0.012
			c0.577-0.554,1.189-1.076,1.836-1.565c0.643-0.483,1.313-0.928,2.006-1.328c0.693-0.401,1.414-0.762,2.156-1.076
			c0.738-0.314,1.496-0.585,2.271-0.806c0.031-0.01,0.057-0.026,0.074-0.05c0.02-0.026,0.031-0.057,0.028-0.086v-5.854
			c0-0.238,0.05-0.469,0.138-0.681c0.092-0.218,0.224-0.416,0.39-0.581c0.164-0.163,0.36-0.296,0.578-0.387
			c0.211-0.088,0.442-0.137,0.682-0.137h7.181c0.24,0,0.469,0.049,0.681,0.137c0.217,0.09,0.415,0.224,0.581,0.387
			c0.324,0.325,0.525,0.771,0.525,1.261v5.854c0,0.035,0.011,0.065,0.029,0.09c0.018,0.022,0.046,0.04,0.078,0.047l0.024,0.008
			C176.495,132.387,177.249,132.654,177.973,132.963z"/>
		<g>
			<path style="fill-rule:evenodd;clip-rule:evenodd;fill:#0C0E0E;" d="M121.892,407.131h256.531c3.223,0,5.859,2.637,5.859,5.857
				l0,0c0,3.225-2.637,5.86-5.859,5.86H121.892c-3.221,0-5.858-2.636-5.858-5.86l0,0
				C116.034,409.768,118.671,407.131,121.892,407.131z"/>
			<path style="fill-rule:evenodd;clip-rule:evenodd;fill:#BE865E;" d="M109.421,398.044h281.474c4.11,0,7.474,3.36,7.474,7.473l0,0
				c0,4.108-3.363,7.472-7.474,7.472H109.421c-4.109,0-7.472-3.36-7.472-7.472l0,0C101.949,401.404,105.311,398.044,109.421,398.044
				z"/>
			<rect x="280.028" y="398.044" style="fill-rule:evenodd;clip-rule:evenodd;fill:#915E40;" width="15.55" height="14.944"/>
			<rect x="303.656" y="398.044" style="fill-rule:evenodd;clip-rule:evenodd;fill:#915E40;" width="8.077" height="14.944"/>
			<rect x="320.217" y="398.044" style="fill-rule:evenodd;clip-rule:evenodd;fill:#915E40;" width="4.038" height="14.944"/>
			<rect x="338.087" y="398.044" style="fill-rule:evenodd;clip-rule:evenodd;fill:#915E40;" width="17.394" height="14.944"/>
			<rect x="368.594" y="398.044" style="fill-rule:evenodd;clip-rule:evenodd;fill:#915E40;" width="8.697" height="14.944"/>
			<path style="fill-rule:evenodd;clip-rule:evenodd;fill:#D49D80;" d="M110.025,400.469h136.801c2.443,0,4.442,1.999,4.442,4.443
				l0,0c0,2.441-1.999,4.443-4.442,4.443H110.025c-2.443,0-4.442-2.002-4.442-4.443l0,0
				C105.583,402.468,107.582,400.469,110.025,400.469z"/>
		</g>
	</g>
</g>
<g id="DESIGNED_BY_FREEPIK">
	<path style="fill:#1C262D;" d="M259.396,475.844c-0.941,0.966-1.562,2.167-1.791,3.473l-0.748-0.132
		c0.107-0.604,0.289-1.19,0.539-1.743l-0.451-0.234c-0.057,0.026-0.117,0.045-0.184,0.052c-0.33,0.039-0.631-0.197-0.67-0.528
		c-0.037-0.331,0.199-0.631,0.529-0.67c0.31-0.036,0.592,0.169,0.66,0.466l0.465,0.241c0.305-0.522,0.676-1.01,1.107-1.453
		L259.396,475.844z M261.346,474.444c0.936-0.447,1.941-0.674,2.996-0.674c0.496,0,0.992,0.053,1.475,0.158l0.16-0.741
		c-0.535-0.116-1.084-0.175-1.635-0.175c-0.172,0-0.342,0.006-0.51,0.017l-0.074-0.626c0.188-0.149,0.297-0.389,0.266-0.645
		c-0.045-0.393-0.402-0.674-0.795-0.628c-0.393,0.046-0.674,0.402-0.627,0.796c0.029,0.254,0.189,0.461,0.404,0.563l0.072,0.624
		c-0.713,0.116-1.402,0.332-2.059,0.646L261.346,474.444z M270.797,474.362c-0.309,0.038-0.535,0.304-0.529,0.608l-0.416,0.363
		c-0.418-0.43-0.891-0.813-1.408-1.14l-0.404,0.642c1.135,0.715,2.021,1.727,2.564,2.925l0.69-0.313
		c-0.25-0.554-0.566-1.071-0.941-1.545l0.402-0.351c0.061,0.012,0.125,0.016,0.189,0.007c0.332-0.04,0.566-0.341,0.525-0.672
		C271.43,474.557,271.129,474.321,270.797,474.362z M263.795,483.221c-0.387,0.023-0.775,0.035-1.158,0.035
		c-0.879,0-1.732-0.061-2.478-0.18c-0.391-0.062-0.846-0.154-1.27-0.292c1.047,1.861,3.068,3.125,5.389,3.125
		c2.855,0,5.262-1.916,5.949-4.503c-0.682,0.449-1.506,0.825-2.459,1.122C266.588,482.897,265.213,483.136,263.795,483.221z
		 M270.373,479.725c0.025,0.191,0.041,0.387,0.045,0.581c-1.375,1.201-3.791,1.985-6.672,2.159
		c-2.641,0.159-4.674-0.248-5.348-0.731c-0.09-0.412-0.137-0.836-0.137-1.261c0-3.277,2.729-5.943,6.08-5.943
		C267.4,474.529,269.994,476.763,270.373,479.725z M264.031,479.194c0-1.021-0.83-1.85-1.85-1.85c-1.02,0-1.85,0.83-1.85,1.85
		c0,1.02,0.83,1.85,1.85,1.85C263.201,481.044,264.031,480.214,264.031,479.194z M268.279,478.775c0-0.75-0.609-1.36-1.359-1.36
		s-1.361,0.61-1.361,1.36s0.611,1.36,1.361,1.36S268.279,479.525,268.279,478.775z M278.119,477.165
		c0-0.666,0.293-0.938,0.844-1.007c0.576-0.071,1.088,0.122,1.383,0.238v-1.729c-0.434-0.187-0.947-0.308-1.59-0.308
		c-1.674,0-2.568,1.102-2.568,2.782v0.889h-1.34v1.717h1.34v5.455h1.932v-5.455h2.229v-1.717h-2.229V477.165z M284.973,477.839
		c-0.881,0-1.568,0.304-2.02,0.977v-0.784h-1.873v7.172h1.932v-3.908c0-1.065,0.615-1.613,1.51-1.613
		c0.168,0,0.35,0.017,0.525,0.046l1.021-1.552C285.82,477.967,285.387,477.839,284.973,477.839z M292.715,481.606
		c0,0.222-0.016,0.488-0.037,0.651h-5.084c0.207,1.036,0.932,1.487,1.842,1.487c0.623,0,1.295-0.252,1.815-0.688l1.133,1.243
		c-0.814,0.748-1.852,1.089-3.057,1.089c-2.199,0-3.725-1.496-3.725-3.753c0-2.258,1.48-3.797,3.627-3.797
		C291.293,477.839,292.707,479.371,292.715,481.606z M290.775,480.94c-0.178-0.918-0.732-1.436-1.561-1.436
		c-0.91,0-1.443,0.548-1.613,1.436H290.775z M300.369,481.606c0,0.222-0.016,0.488-0.037,0.651h-5.086
		c0.207,1.036,0.934,1.487,1.844,1.487c0.621,0,1.295-0.252,1.813-0.688l1.133,1.243c-0.814,0.748-1.85,1.089-3.057,1.089
		c-2.199,0-3.723-1.496-3.723-3.753c0-2.258,1.48-3.797,3.627-3.797C298.947,477.839,300.361,479.371,300.369,481.606z
		 M298.43,480.94c-0.178-0.918-0.734-1.436-1.563-1.436c-0.91,0-1.443,0.548-1.613,1.436H298.43z M308.715,481.613
		c0,2.154-1.496,3.775-3.473,3.775c-0.961,0-1.643-0.378-2.109-0.933v3.708h-1.924v-10.133h1.887v0.792
		c0.467-0.585,1.154-0.984,2.139-0.984C307.219,477.839,308.715,479.46,308.715,481.613z M306.73,481.613
		c0-1.095-0.711-1.976-1.85-1.976c-1.096,0-1.844,0.844-1.844,1.976c0,1.133,0.748,1.977,1.844,1.977
		C306.02,483.59,306.73,482.709,306.73,481.613z M310.582,474.441c-0.697,0-1.229,0.548-1.229,1.243
		c0,0.696,0.531,1.229,1.229,1.229c0.695,0,1.236-0.533,1.236-1.229C311.818,474.989,311.277,474.441,310.582,474.441z
		 M309.627,485.203h1.932v-7.172h-1.932V485.203z M316.373,481.406l3.479-3.375h-2.367l-2.703,2.554v-6.04h-1.932v10.658h1.932
		v-2.901l2.717,2.901h2.377L316.373,481.406z M183.162,475.368h1.099v9.771h-1.099v-1.055c-0.527,0.718-1.392,1.23-2.388,1.23
		c-1.846,0-3.149-1.406-3.149-3.706c0-2.256,1.289-3.721,3.149-3.721c0.952,0,1.816,0.469,2.388,1.245V475.368z M183.162,480.012
		c-0.395-0.615-1.245-1.143-2.124-1.143c-1.421,0-2.271,1.172-2.271,2.739s0.85,2.725,2.271,2.725c0.879,0,1.729-0.498,2.124-1.113
		V480.012z M192.565,481.682v0.278h-5.727c0.088,1.333,1.025,2.446,2.549,2.446c0.806,0,1.626-0.322,2.182-0.894l0.527,0.718
		c-0.703,0.703-1.654,1.084-2.811,1.084c-2.095,0-3.604-1.509-3.604-3.721c0-2.051,1.465-3.706,3.486-3.706
		C191.307,477.888,192.565,479.558,192.565,481.682z M191.482,481.154c-0.015-1.055-0.718-2.358-2.329-2.358
		c-1.509,0-2.256,1.274-2.314,2.358H191.482z M194.616,479.895c0-0.63,0.601-1.113,1.567-1.113c0.908,0,1.685,0.381,2.109,0.893
		l0.513-0.762c-0.571-0.571-1.421-1.025-2.622-1.025c-1.685,0-2.637,0.938-2.637,2.036c0,2.622,4.38,1.567,4.38,3.281
		c0,0.703-0.586,1.216-1.67,1.216c-0.967,0-1.86-0.469-2.329-1.011l-0.571,0.791c0.718,0.762,1.699,1.113,2.856,1.113
		c1.831,0,2.783-0.952,2.783-2.139C198.996,480.422,194.616,481.447,194.616,479.895z M200.959,475.573
		c-0.396,0-0.732,0.337-0.732,0.747c0,0.41,0.337,0.732,0.732,0.732c0.41,0,0.747-0.322,0.747-0.732
		C201.706,475.91,201.369,475.573,200.959,475.573z M200.417,485.139h1.099v-7.075h-1.099V485.139z M208.458,478.064h1.099v6.87
		c0,2.344-1.641,3.076-3.369,3.076c-1.201,0-2.021-0.235-2.855-1.055l0.556-0.82c0.586,0.703,1.289,0.967,2.3,0.967
		c1.172,0,2.27-0.571,2.27-2.124v-1.011c-0.513,0.718-1.377,1.26-2.373,1.26c-1.846,0-3.15-1.377-3.15-3.662
		c0-2.271,1.289-3.677,3.15-3.677c0.952,0,1.802,0.469,2.373,1.245V478.064z M208.458,480.012c-0.381-0.615-1.23-1.143-2.109-1.143
		c-1.421,0-2.27,1.128-2.27,2.695c0,1.553,0.849,2.695,2.27,2.695c0.879,0,1.728-0.542,2.109-1.157V480.012z M215.006,477.888
		c-1.055,0-2.021,0.615-2.52,1.201v-1.025h-1.099v7.075h1.099v-5.171c0.41-0.571,1.23-1.099,2.095-1.099
		c0.952,0,1.582,0.395,1.582,1.641v4.629h1.099v-4.966C217.262,478.635,216.485,477.888,215.006,477.888z M225.566,481.682v0.278
		h-5.727c0.088,1.333,1.024,2.446,2.548,2.446c0.806,0,1.626-0.322,2.183-0.894l0.527,0.718c-0.703,0.703-1.655,1.084-2.813,1.084
		c-2.094,0-3.604-1.509-3.604-3.721c0-2.051,1.465-3.706,3.486-3.706C224.307,477.888,225.566,479.558,225.566,481.682z
		 M224.482,481.154c-0.015-1.055-0.718-2.358-2.329-2.358c-1.509,0-2.256,1.274-2.313,2.358H224.482z M232.1,475.368h1.099v9.771
		H232.1v-1.055c-0.527,0.718-1.392,1.23-2.388,1.23c-1.846,0-3.149-1.406-3.149-3.706c0-2.256,1.289-3.721,3.149-3.721
		c0.952,0,1.816,0.469,2.388,1.245V475.368z M232.1,480.012c-0.395-0.615-1.245-1.143-2.124-1.143c-1.421,0-2.271,1.172-2.271,2.739
		s0.85,2.725,2.271,2.725c0.879,0,1.729-0.498,2.124-1.113V480.012z M245.077,481.608c0,2.3-1.304,3.706-3.149,3.706
		c-0.996,0-1.86-0.513-2.388-1.23v1.055h-1.099v-9.771h1.099v3.765c0.571-0.776,1.421-1.245,2.388-1.245
		C243.773,477.888,245.077,479.353,245.077,481.608z M243.935,481.608c0-1.567-0.85-2.739-2.285-2.739
		c-0.864,0-1.729,0.527-2.109,1.143v3.208c0.381,0.615,1.245,1.113,2.109,1.113C243.085,484.333,243.935,483.176,243.935,481.608z
		 M248.988,483.864l-2.358-5.801h-1.187l2.959,7.148l-0.469,1.069c-0.249,0.586-0.571,0.747-1.055,0.747
		c-0.176,0-0.439-0.044-0.601-0.117l-0.176,0.995c0.205,0.059,0.571,0.103,0.806,0.103c0.938-0.015,1.655-0.411,2.08-1.436
		l3.545-8.511h-1.201L248.988,483.864z"/>
</g>
</svg>
